<svg width="317" height="8" viewBox="0 0 317 8" fill="none" xmlns="http://www.w3.org/2000/svg">
<path d="M256.364 0.934659C241.596 0.678473 229 0.371048 216.23 0.268574C206.501 0.183179 196.597 0.268576 186.868 0.40521C171.926 0.627241 157.072 0.985903 142.217 1.20793C122.584 1.49828 102.952 1.68615 83.3191 2.01066C76.4564 2.11313 69.6802 2.45472 62.9912 2.72799C59.082 2.8817 55.2598 3.22328 51.2637 3.32576C34.5847 3.76982 19.122 5.06783 3.22476 6.00718C1.74796 6.09258 0.35788 6.63912 0.0104071 7.01486C-0.163329 7.21981 1.83484 7.6297 3.22476 7.7151C5.91773 7.90297 8.87149 8.02252 11.6513 8.00544C20.2515 7.98836 28.9383 7.9542 37.5384 7.80049C49.0053 7.57846 60.3852 7.2198 71.7651 6.96361C75.7612 6.87821 79.844 6.91238 83.84 6.92945C92.4401 6.96361 101.127 7.06608 109.728 7.049C129.36 6.99776 148.993 6.87821 168.625 6.79281C182.524 6.74157 196.337 6.72449 210.236 6.70741C230.477 6.69033 250.718 6.65617 270.958 6.74157C283.989 6.7928 295.977 5.92176 308.226 5.27276C310.832 5.13612 313.177 4.70914 315.175 4.31632C317.608 3.83811 316.826 3.2745 314.741 2.79628C314.046 2.62549 313.09 2.42054 312.048 2.3693C300.842 1.85693 290.243 0.832179 278.429 0.900497C270.524 0.968814 262.445 0.934658 256.364 0.934659Z" fill="#FFE093"/>
</svg>
