<svg width="500" height="93" viewBox="0 0 500 93" fill="none" xmlns="http://www.w3.org/2000/svg">
<path d="M499.812 15.5336C498.354 15.3552 496.919 15.1817 495.484 14.9934C494.473 14.9389 493.344 14.8844 492.027 14.8299C488.782 14.9339 485.019 14.7109 480.809 14.4582C478.716 14.3293 476.482 14.1955 474.153 14.0964C471.825 14.0022 469.379 13.9477 466.863 13.9675C472.319 13.8287 455.339 13.3975 464.158 13.343C460.348 12.9465 443.133 12.9168 435.677 12.3617C436.971 12.332 436.736 12.2477 438.57 12.2725C427.752 12.0891 431.42 11.8017 423.495 11.5291L423.542 11.8661C420.39 11.8661 419.685 11.5985 416.933 11.5489C419.026 11.6728 423.424 11.995 420.931 12.0396C417.239 11.9751 414.111 11.9652 410.183 11.8116C410.23 11.6877 413.029 11.7323 414.911 11.767C414.911 11.767 406.444 11.4101 405.997 11.2317C409.125 11.2416 413.053 11.3953 415.875 11.316C404.821 10.7906 415.075 11.1772 409.901 10.7113C410.489 10.9294 408.02 10.8848 404.68 10.746C401.387 10.5973 397.201 10.3694 394.191 10.2752C393.744 10.0968 398.401 10.4189 399.976 10.3743C397.319 10.0769 394.967 9.88861 392.662 9.75479C391.533 9.69036 390.31 9.63585 389.087 9.58628C387.864 9.53672 386.642 9.50203 385.372 9.46238C384.595 9.44256 383.843 9.42273 383.043 9.40786C377.164 8.37203 370.884 7.59888 365.169 6.95458C363.499 6.75634 361.83 6.57792 360.254 6.39454C358.678 6.21612 357.197 6.02779 355.762 5.85432C352.916 5.50739 350.517 5.12577 348.565 4.71937C340.334 4.12959 330.386 3.58937 317.615 2.78152C317.451 2.90047 315.287 2.79144 313.264 2.69231C311.242 2.6031 309.36 2.54363 309.784 2.72701C315.663 3.23253 321.425 3.50016 326.881 3.78266C329.61 3.93134 332.22 4.08994 334.737 4.27827C337.206 4.48147 339.558 4.72432 341.674 5.0316C347.084 5.40827 345.743 5.05143 348.354 5.1456C350.682 5.35375 352.893 5.59165 354.562 5.78494C356.232 5.97822 357.338 6.15169 357.479 6.25577C352.046 5.77502 351.011 5.84937 349.694 5.86423C348.354 5.87415 346.707 5.84441 339.958 5.23481C340.64 5.40331 343.697 5.73537 347.225 6.07735C350.682 6.4441 354.586 6.82077 356.867 7.11318C355.221 7.06362 356.35 7.34116 359.149 7.75747C355.409 7.56418 347.625 6.93971 343.321 6.74642C344.944 6.7712 342.521 6.46888 343.791 6.51349C343.791 6.51349 342.874 6.45401 341.533 6.3648C340.851 6.3202 340.075 6.27064 339.205 6.21116C338.358 6.1616 337.441 6.10708 336.524 6.05257C334.69 5.94849 332.902 5.8345 331.515 5.76015C330.127 5.69077 329.21 5.64121 329.21 5.64121C325.141 5.15551 324.247 4.88788 326.811 4.94239C322.93 4.61033 317.474 4.2981 313.029 4.05029C308.584 3.80249 305.15 3.61415 305.362 3.42086C300.071 3.1681 300.847 3.27714 303.034 3.44564C305.221 3.62406 308.772 3.90656 309.149 3.98091L308.231 3.94621C308.231 3.94621 311.007 4.08994 313.735 4.26341C315.099 4.34766 316.463 4.43191 317.498 4.49139C318.015 4.52112 318.438 4.55086 318.721 4.57068C319.026 4.59051 319.191 4.60042 319.191 4.60042C319.332 4.72928 318.65 4.72432 317.498 4.66981C316.345 4.61529 314.722 4.49634 313.006 4.37244C311.312 4.24358 309.478 4.12463 307.949 4.05525C306.42 3.98586 305.198 3.95613 304.633 4.03542C303.316 4.36748 299.553 4.10977 295.061 3.74301C292.827 3.56955 290.404 3.36139 288.029 3.19784C285.654 3.03924 283.349 2.90543 281.35 2.86578C281.35 2.86578 283.725 2.81126 286.124 2.75674C287.324 2.72701 288.523 2.70223 289.44 2.6824C290.334 2.66753 290.945 2.65762 290.945 2.65762C290.945 2.65762 290.452 2.64275 289.699 2.62293C288.946 2.6031 287.935 2.58328 286.924 2.5585C284.901 2.51389 282.902 2.46929 282.902 2.46929C287.653 2.42964 287.959 2.02819 295.249 2.1174C292.498 1.98854 289.464 1.8349 286.312 1.711C283.184 1.56727 279.939 1.44833 276.811 1.33433C273.683 1.21539 270.673 1.14105 267.991 1.0667C265.31 1.00227 262.935 0.972538 261.124 0.962626C258.396 0.709863 257.173 0.52153 258.514 0.34311C247.037 0.536399 240.781 -0.0285995 230.856 0.00113723C220.437 0.258856 241.369 0.2539 233.772 0.566135C232.197 0.501706 229.986 0.501706 227.822 0.531443C226.129 0.561179 224.459 0.610741 223.142 0.645433C223.871 0.625609 224.741 0.615697 225.776 0.610741C226.576 0.610741 227.446 0.600828 228.387 0.605784C229.327 0.605784 230.315 0.615697 231.326 0.620653C235.442 0.640477 240.075 0.729688 243.862 0.789161C238.194 0.769337 238.829 1.05184 237.253 1.16583C237.253 1.16583 239.605 1.18565 241.957 1.20548C243.133 1.21539 244.309 1.2253 245.179 1.24017C246.049 1.25008 246.637 1.25999 246.637 1.25999C245.978 1.5871 235.113 1.23521 230.785 1.44833C233.514 1.12618 231.985 1.12122 234.76 0.799073C232.714 0.838722 230.433 0.868459 228.034 0.898196C225.635 0.932889 223.119 0.962626 220.649 0.98245C218.18 1.01219 215.757 1.03697 213.499 1.04688C211.242 1.05679 209.172 1.07166 207.432 1.05679C203.293 1.01714 210.795 0.82881 212.959 0.699951C210.983 0.526486 204.868 0.987406 203.151 0.774293C204.304 0.541355 208.161 0.645433 210.983 0.526486C210.983 0.526486 209.478 0.551267 207.244 0.590916C204.986 0.620653 201.999 0.690039 198.989 0.759424C195.978 0.813942 193.039 0.927933 190.804 0.992362C188.57 1.06175 187.088 1.10635 187.088 1.10635C186.994 0.98245 192.897 0.734644 196.684 0.655346C193.015 0.704907 189.887 0.799073 186.642 0.962626C183.42 1.13609 180.056 1.35416 176.105 1.77047C172.037 1.89438 167.639 2.01828 164.558 2.0728C161.5 2.13723 159.784 2.15705 161.03 1.98359C157.455 2.27104 160.042 2.24131 160.23 2.36025C154.845 2.63284 151.976 2.89551 149.694 3.13836C147.413 3.37626 145.743 3.62902 142.592 3.84709L147.672 3.74301C137.206 4.20393 145.884 4.27332 136.689 4.70946C137.77 4.38235 136.759 4.15437 134.831 4.01064C133.702 4.33279 127.775 4.59051 123.918 4.88788C126.693 4.92753 116.087 5.74529 122.672 5.48261C120.532 5.69573 118.697 5.88901 117.004 6.0377C115.31 6.19134 113.782 6.31524 112.324 6.43419C110.865 6.55313 109.478 6.67208 108.114 6.81085C106.726 6.94962 105.409 7.133 103.998 7.35603C108.09 7.03388 97.1778 8.31256 100.941 8.13414C98.9182 8.3423 96.9896 8.5108 95.2963 8.65453C93.6265 8.80322 92.1684 8.91721 90.9925 8.98659C88.6642 9.12536 87.5117 9.09067 88.3113 8.85773C91.1571 8.57028 95.8372 8.17874 95.1082 8.03502C95.1082 8.03502 94.873 8.0598 94.4732 8.09945C94.0734 8.14405 93.5089 8.20848 92.8034 8.28778C91.4393 8.44142 89.6049 8.64958 87.7705 8.85278C85.936 9.05598 84.1251 9.26414 82.7375 9.42273C81.397 9.58628 80.4798 9.69532 80.4798 9.69532C76.6228 10.0076 71.8485 10.5032 70.602 10.3297C68.6971 10.751 65.2163 11.1326 61.8532 11.4993C61.0065 11.5935 60.1834 11.6827 59.3838 11.7719C58.6077 11.8661 57.8787 11.9652 57.1966 12.0594C55.8326 12.2477 54.7507 12.441 54.1392 12.6393C56.2088 12.218 58.3725 11.9454 60.2775 11.767C62.206 11.5886 63.8288 11.4894 64.8165 11.3903L62.7469 11.7125C63.0762 11.6728 63.429 11.6332 63.9228 11.5786C63.9228 11.5786 62.6999 11.876 61.4534 12.1734C60.842 12.3171 60.254 12.4757 59.7837 12.5897C59.3368 12.7037 59.0311 12.783 59.0311 12.783C62.159 12.4757 62.2295 12.3815 62.5353 12.218C62.841 12.0594 63.4055 11.8413 67.5682 11.316C71.731 11.0533 68.0621 11.7224 64.4168 12.3568C62.5823 12.6739 60.7949 12.9961 59.9482 13.1943C59.1251 13.3876 59.2192 13.4521 61.2418 13.2687C67.6388 12.5996 65.4986 12.3766 70.1552 11.5935L68.8147 11.7521C68.8147 11.7521 69.4967 11.653 70.5315 11.4993C71.0489 11.42 71.6368 11.3358 72.2954 11.2416C72.9539 11.1524 73.6595 11.0533 74.3415 10.9542C77.1402 10.5676 79.9624 10.181 79.9624 10.181C80.8561 10.2504 77.6341 10.7807 77.6341 10.7807C84.6425 9.93321 88.9934 9.55655 93.3913 9.15014C94.4967 9.05102 95.602 8.94199 96.778 8.84286C97.9539 8.73879 99.2004 8.63471 100.564 8.52072C101.905 8.40177 103.363 8.26795 104.986 8.12423C105.786 8.04988 106.632 7.97059 107.526 7.89129C108.42 7.80703 109.36 7.72278 110.372 7.63853C109.737 7.66331 108.396 7.63853 108.114 7.51958C107.808 7.39568 108.537 7.17761 112.041 6.82572C116.98 6.26072 118.086 6.45401 122.436 6.117C119.944 6.37967 118.156 6.84059 114.393 6.97936L115.287 7.26186C112.488 7.6187 110.842 7.87146 109.666 8.06971C108.514 8.28282 107.855 8.43646 107.055 8.59506C106.232 8.75861 105.292 8.92216 103.575 9.15014C102.728 9.26414 101.67 9.39299 100.329 9.55159C99.6707 9.62593 98.9417 9.71019 98.1421 9.80435C97.3424 9.89852 96.4958 10.0026 95.5315 10.1166C95.4374 10.2653 92.6623 10.6717 88.8523 11.1475C86.9238 11.3754 84.8307 11.6629 82.6435 11.9256C80.4563 12.1932 78.1985 12.446 76.1054 12.6789L80.6209 12.3964C76.8579 13.0754 76.2935 13.0556 75.3763 13.0655C74.459 13.0704 73.2361 13.1101 68.2973 13.9378C65.4986 14.022 61.8297 14.255 59.4308 14.3045C57.032 14.359 55.9266 14.245 58.4431 13.69C56.4911 13.9229 54.8918 14.1311 53.4807 14.3243C52.0931 14.5226 50.9408 14.7159 49.7884 14.9042C47.5071 15.2858 45.3198 15.6476 42.0273 16.1383C36.9943 16.4406 43.015 15.5188 41.2747 15.3354C36.524 16.0838 30.8561 17.1097 34.9953 16.7429L25.4939 18.0018C25.047 17.977 28.2925 17.4814 29.586 17.298C25.8231 17.7688 19.5673 18.9534 17.9445 19.3697C18.6265 19.2408 20.7432 18.8443 21.8956 18.7402C18.4149 19.3945 12.159 20.579 11.9473 20.7326C16.9332 19.7364 18.556 19.9842 23.6594 18.9137C23.4478 19.0674 23.0009 19.3746 19.8495 19.8009C25.2117 19.2408 29.8447 18.4776 32.5258 18.3785C27.9868 18.8344 26.1759 19.449 25.4233 19.6076C29.2098 19.107 36.1947 17.972 38.3349 17.526C39.158 17.6549 42.6387 17.1196 45.4609 16.6884C48.0479 16.2969 50.0941 15.9946 49.0122 16.3365C50.3528 16.0342 54.7272 15.4097 57.4083 15.152C57.5729 15.3205 50.7526 16.4158 48.2596 17.0106C34.7366 19.2359 47.6952 16.7281 44.0733 17.1047C44.0733 17.1047 41.3923 17.5062 38.7347 17.9076C36.0771 18.314 33.4195 18.7254 33.4195 18.7254C34.666 18.6114 29.9389 19.6026 36.8297 18.5321C35.5597 18.879 33.3725 19.3399 30.7385 19.8058C28.1044 20.2766 25.0705 20.7376 22.0367 21.0845C21.0959 21.3769 25.0706 20.7376 26.317 20.5591C25.3998 20.8466 19.873 22.2244 28.7864 20.9358C26.2464 21.3026 32.4788 20.128 27.6105 20.7078C30.9736 20.123 40.8984 18.8394 37.7705 19.5877C38.7817 19.4143 40.0047 19.2012 41.3452 18.9682C42.6858 18.7402 44.0969 18.4974 45.508 18.2545C46.9191 18.0167 48.3067 17.7788 49.5532 17.5656C50.7996 17.3624 51.9285 17.184 52.7752 17.0453C54.2803 17.0601 49.953 17.531 48.4478 17.868C48.4478 17.868 49.2004 17.749 50.3292 17.5756C51.4581 17.4021 52.9633 17.1741 54.4685 16.9461C55.9737 16.7181 57.4789 16.4852 58.6077 16.3167C59.7601 16.1482 60.5127 16.0392 60.5127 16.0392C60.5127 16.0392 59.4779 16.1185 58.4666 16.1928C57.4553 16.2771 56.4205 16.3564 56.4205 16.3564C58.7723 16.0639 60.889 15.7914 62.7705 15.4989C64.6519 15.2115 66.3453 14.924 67.9915 14.6366C71.2841 14.0815 74.271 13.5115 77.8693 12.9763C77.7281 13.1745 76.1289 13.4868 73.9887 13.8337C71.8485 14.1856 69.1674 14.5721 66.9567 14.9686C72.6011 14.6911 69.5437 14.3987 77.4694 13.457C78.6453 13.3728 79.1157 13.4124 78.8335 13.5611L84.4544 12.5699C86.0066 12.4212 85.7479 12.5104 85.1834 12.6095C89.699 11.881 89.4403 11.7967 89.6284 11.6778C89.8401 11.5588 90.5691 11.4052 97.8363 10.5329C88.5701 11.3705 90.6867 11.534 83.2785 12.3865C80.8796 12.5352 82.7375 12.1982 85.4421 11.767C86.1241 11.6629 86.8532 11.5489 87.5823 11.4399C88.3113 11.3358 89.0405 11.2317 89.746 11.1326C91.1101 10.9393 92.2624 10.7708 92.7328 10.6816C100.188 9.94312 102.07 10.3198 110.866 9.15014C104.61 9.94808 111.195 9.45247 101.905 10.3842C97.0602 11.0483 104.962 10.2405 106.421 10.3049C108.749 10.0076 104.092 10.1562 111.03 9.52185L110.842 9.59124C110.842 9.59124 111.5 9.50203 112.488 9.36821C113.499 9.24431 114.84 9.0758 116.157 8.90729C118.862 8.57028 121.543 8.23822 121.543 8.23822C122.93 8.14405 124.271 8.01519 125.706 7.91111C127.14 7.80208 128.551 7.68313 129.986 7.55427C132.855 7.30647 135.724 7.02892 138.523 6.78112C141.345 6.55313 144.073 6.33011 146.613 6.16656C147.883 6.0823 149.083 6.00796 150.235 5.95344C151.388 5.89397 152.469 5.85928 153.481 5.84937C153.481 5.84937 152.916 5.79485 152.352 5.73537C151.811 5.6759 151.246 5.62634 151.246 5.62634C154.727 5.40331 158.984 5.15551 162.959 4.9077C163.946 4.84823 164.934 4.78875 165.875 4.72928C166.816 4.66981 167.756 4.63016 168.627 4.5806C170.39 4.48643 171.943 4.40218 173.189 4.32783C172.695 4.44678 171.284 4.57068 169.356 4.69954C168.391 4.76397 167.309 4.82345 166.157 4.90275C165.005 4.98204 163.805 5.07125 162.582 5.15551C164.182 5.07621 165.71 4.98204 167.262 4.90275C168.791 4.83336 170.32 4.75406 171.801 4.67972C174.765 4.52608 177.611 4.36748 180.315 4.19898C181.656 4.10977 182.996 4.04038 184.29 3.97099C185.583 3.90161 186.853 3.83222 188.076 3.75788C190.522 3.61415 192.827 3.47042 194.944 3.3267C188.429 3.30687 187.512 3.36139 181.303 3.41095C185.325 3.02933 187.912 3.00951 190.804 3.01446C193.697 3.02933 196.872 3.01942 202.281 2.77657C202.775 3.09872 199.13 3.14332 202.023 3.39113C203.128 3.30687 204.421 3.22757 205.809 3.16315C207.22 3.10367 208.749 3.04915 210.301 2.99959C213.382 2.8856 216.58 2.81622 219.12 2.67249C220.555 2.81126 220.061 2.96986 217.827 3.11358C216.722 3.18793 215.169 3.25731 213.194 3.32174C211.242 3.40104 208.866 3.47042 206.091 3.53485C203.951 3.51999 201.764 3.55468 199.6 3.61415C198.518 3.64389 197.436 3.68354 196.378 3.7331C195.32 3.78266 194.261 3.83222 193.203 3.88178C189.017 4.08498 185.019 4.27332 181.468 4.27332C181.468 4.27332 181.75 4.27332 182.15 4.27332C182.549 4.27827 183.09 4.28323 183.655 4.29314C184.737 4.30305 185.842 4.31792 185.842 4.31792C183.772 4.41209 181.891 4.49139 180.174 4.59051C178.434 4.67972 176.834 4.76397 175.259 4.84327C173.683 4.92257 172.154 5.00682 170.579 5.09603C169.003 5.1902 167.38 5.27445 165.71 5.42314L165.945 5.35871L162.865 5.8791L166.627 5.66599C164.229 5.99805 156.867 6.73155 154.586 6.87033C166.04 6.17647 166.204 5.58173 171.496 5.05143C174.153 4.93248 176.458 4.86805 178.481 4.8284C180.527 4.79371 182.314 4.76397 184.007 4.76893C187.371 4.76893 190.24 4.74415 193.674 4.47652C194.379 4.61033 200.4 4.56573 195.767 4.87796C189.981 5.17038 185.677 5.11586 185.277 5.35375C191.439 5.13073 189.205 5.34384 198.542 4.97709C200.118 4.63511 207.008 4.15933 213.758 3.80249C220.884 3.51503 230.245 3.45556 235.96 3.53485C228.739 3.5745 221.637 3.94126 223.495 4.13455C227.611 3.77275 237.512 4.2981 235.372 3.88674C237.465 3.89665 239.911 3.90656 242.404 3.91648C244.896 3.9363 247.46 3.97595 249.788 4.0156C254.421 4.11472 258.114 4.25845 258.49 4.44678C250.659 4.45174 243.109 4.18411 236.453 4.25845C238.288 4.26836 240.075 4.36748 238.993 4.44678C238.993 4.44678 238.382 4.44678 237.465 4.43687C236.547 4.42696 235.325 4.42696 234.102 4.42696C231.656 4.42696 229.21 4.42696 229.21 4.42696C232.926 4.5013 234.407 4.56573 236.124 4.60538C237.865 4.65989 239.84 4.66981 244.544 4.67476C243.956 4.64007 242.78 4.57068 243.674 4.56077C246.025 4.57068 248.989 4.60538 251.341 4.6252L251.552 4.96222C253.316 4.94735 255.456 4.97213 257.902 5.02169C260.325 5.08612 263.053 5.16046 265.945 5.25463C268.838 5.3488 271.896 5.45288 275.023 5.55695C276.599 5.61147 278.198 5.65112 279.774 5.69572C281.373 5.74529 282.973 5.78493 284.572 5.81467L283.373 5.83945C285.865 5.94849 287.818 6.00796 289.511 6.03274C291.204 6.05752 292.686 6.03274 294.167 6.02779C297.131 6.01292 300.306 5.96831 305.739 6.25081C302.422 6.22107 303.692 6.43914 304.045 6.61756C306.82 6.68199 308.819 6.84059 310.771 7.02892C311.736 7.12309 312.7 7.22221 313.758 7.32629C314.793 7.43533 315.898 7.54932 317.168 7.66331C311.359 7.04875 321.825 7.62366 317.545 7.20734C317.592 7.12309 318.321 7.10822 319.45 7.14291C320.014 7.15778 320.696 7.18752 321.449 7.22221C322.178 7.26186 323.001 7.31638 323.848 7.3709C325.541 7.48984 327.422 7.6187 329.186 7.77234C330.127 7.85164 331.021 7.93094 331.867 8.00528C330.433 8.00528 329.21 8.01519 328.528 8.06971C328.081 8.03997 327.634 8.01024 327.187 7.9805C323.636 7.76739 320.696 7.59392 323.612 8.03006C321.613 7.96068 319.685 7.90616 319.685 7.90616C316.04 8.0251 316.533 8.20848 316.134 8.36212C315.757 8.52072 314.511 8.63966 307.432 8.69914C300.964 8.65453 301.246 8.49594 302.187 8.29769C303.128 8.1044 304.751 7.89625 300.941 7.8219L297.813 8.08458C297.813 8.08458 296.214 8.05484 294.614 8.03502L291.416 7.99537L292.38 7.96067C288.594 8.07962 281.656 8.12918 281.585 8.00528C282.173 7.89624 286.289 7.82686 286.853 7.72278C285.301 7.80208 282.949 7.83181 280.174 7.84173C277.399 7.8566 274.247 7.86651 271.072 7.88138C267.897 7.90616 264.722 7.95572 261.971 8.03502C259.196 8.12423 256.844 8.26795 255.292 8.47116C251.505 8.46124 243.862 8.71401 244.685 8.47611C243.109 8.67436 238.899 8.7933 234.501 8.92216C232.291 8.99155 230.056 9.05598 228.034 9.13032C226.035 9.20466 224.271 9.29883 223.071 9.39299C223.636 9.26909 218.768 9.3137 215.099 9.57141C220.226 9.4376 217.192 9.69532 213.946 10.0076C211.642 10.0076 207.432 10.2157 203.528 10.3892C199.624 10.5726 196.025 10.7361 194.873 10.6221C188.311 11.2069 191.11 11.2912 189.958 11.6183C187.653 11.6431 183.09 11.9057 179.304 12.0842C175.541 12.2824 172.578 12.4014 173.495 12.1288C177.258 11.9008 185.654 11.4349 183.725 11.2912C176.458 11.6183 180.785 11.5836 175.071 12.0297C175.4 11.9305 170.743 12.0842 171.684 11.8958C168.321 12.1882 163.523 12.5401 158.561 12.892C166.439 12.4311 154.186 13.5462 159.008 13.3133C159.008 13.3133 160.701 13.0952 162.394 12.8821C163.241 12.7731 164.087 12.664 164.746 12.5947C165.381 12.5154 165.804 12.4658 165.804 12.4658C174.647 11.7719 168.015 12.5253 171.519 12.3617C167.686 12.6789 165.005 12.9118 163.006 13.1398C160.983 13.3629 159.572 13.5413 158.208 13.7296C156.844 13.913 155.55 14.1112 153.692 14.3442C152.775 14.4631 151.717 14.5821 150.47 14.7357C149.224 14.8844 147.789 15.0578 146.049 15.2462C144.661 15.3403 142.756 15.494 140.992 15.6377C139.229 15.7814 137.629 15.9153 136.924 15.9946C141.486 15.4791 139.887 15.2561 137.018 15.4791C133.561 16.0392 130.056 16.3663 126.67 16.6686C124.953 16.8123 123.283 16.9511 121.613 17.0899C120.555 17.184 119.544 17.2881 118.532 17.3872C121.707 17.1146 119.826 17.5607 118.344 17.8333C115.287 18.2694 113.5 18.542 112.324 18.6857C111.171 18.8295 110.724 18.8542 110.442 18.8443C109.901 18.8195 110.089 18.6362 107.173 18.9335C97.6011 20.2568 89.6754 21.3273 82.4553 22.4226C75.2587 23.518 68.6971 24.6232 62.3001 26.0704C62.3001 26.0704 64.1816 25.8126 66.0866 25.5549C67.0273 25.4261 67.968 25.3022 68.6736 25.208C69.3791 25.1089 69.8495 25.0494 69.8495 25.0494L71.0724 24.4101C74.0593 24.0284 74.3415 24.2069 73.6124 24.5637C72.9068 24.9255 71.143 25.4508 70.0612 25.8077C69.5202 25.8374 67.2389 26.2686 65.4045 26.5957C63.6171 26.9278 62.3236 27.1657 63.6406 26.7692C63.6406 26.7692 61.7827 27.2004 59.9482 27.6315C59.0075 27.8446 58.1373 28.0726 57.4788 28.2411C56.8203 28.4096 56.3735 28.5187 56.3735 28.5187C57.1731 28.4394 58.7488 28.1172 59.7366 27.9289C60.7714 27.7455 61.1712 27.6861 59.619 28.1222C58.2079 28.365 55.4797 28.9053 53.6923 29.2423C51.9285 29.5842 51.0113 29.7131 53.0338 29.0837C51.0818 29.5446 48.9182 30.0848 47.5541 30.511C46.19 30.9422 45.4845 31.2396 46.2135 31.19C40.3575 32.7463 45.3198 30.7836 47.6011 30.0105C42.7328 31.2198 42.3565 30.9026 43.4854 30.4664C43.4854 30.4664 43.0621 30.5755 42.4506 30.739C41.8626 30.9075 40.9925 31.1157 40.2164 31.3437C38.6642 31.7947 37.0884 32.2457 37.0884 32.2457C38.1467 31.8046 37.6764 31.7303 38.7347 31.2892C36.4064 31.8442 34.7601 32.3795 33.302 32.9049C31.8203 33.4252 30.2916 33.906 28.1985 34.3768L27.8222 34.9963C26.3875 35.4077 25.2587 35.7794 24.2474 36.1065C23.2361 36.4336 22.3424 36.7112 21.6134 36.9639C20.1552 37.4794 19.0498 37.8709 17.9915 38.2575C16.016 39.0405 14.111 39.8038 10.6538 41.5929L12.6764 41.0676C11.7122 41.7664 11.1006 42.2471 10.4186 42.6189C9.76009 42.9906 9.03101 43.2483 8.34898 43.5506C7.66695 43.848 6.89087 44.18 6.02069 44.6707C5.80902 44.7946 5.5503 44.9284 5.33864 45.0721C5.12697 45.2208 4.91533 45.3794 4.70367 45.5529C4.25682 45.8998 3.81 46.3112 3.33964 46.7919C2.96334 47.342 2.61054 47.8377 2.35183 48.2738C2.0461 48.7099 1.99903 49.0866 1.95199 49.3889C1.90495 49.9886 2.16366 50.281 2.9868 50.1571C2.86921 50.4694 2.82219 50.7221 2.70459 50.9352C2.587 51.1483 2.42237 51.3169 2.25774 51.4606C1.88145 51.753 1.43462 51.9612 1.03481 52.2387C1.27 52.7343 1.66982 53.5124 1.85797 54.35C2.0226 54.7713 2.1402 55.2025 2.16372 55.6287C2.16372 55.8418 2.16367 56.0549 2.11664 56.2581C2.11664 56.4613 2.06963 56.6645 1.99907 56.8578C1.83444 56.6001 1.64629 56.3523 1.55222 56.1094C1.45815 55.8715 1.36408 55.6386 1.27001 55.4057C1.19946 55.1727 1.10537 54.9447 1.03481 54.7118C0.964258 54.4789 0.893731 54.2459 0.91725 53.9981C0.0705895 54.1319 0.0235183 54.9794 0 55.9905C0 56.496 0.211654 57.0412 0.282209 57.5566C0.329245 57.8193 0.352807 58.0721 0.399843 58.31C0.470398 58.5478 0.493865 58.7709 0.493865 58.9741C0.776085 59.2467 1.19946 59.6828 1.71686 60.2032C2.30482 60.7335 3.01033 61.3629 3.88051 61.9973C5.57383 63.271 7.85511 64.6042 9.68955 65.536C9.71306 65.0651 10.301 64.8917 11.2418 65.0453C12.159 65.199 13.5466 65.6648 15.2869 66.4727C14.6754 66.3686 15.2164 66.9534 16.2276 67.7117C16.745 68.0884 17.3095 68.5097 17.921 68.9111C18.5089 69.3125 19.0734 69.6942 19.4967 69.9866C18.556 69.7388 19.2616 70.4178 19.6614 70.8688C19.873 71.0918 19.9906 71.2553 19.7084 71.2157C19.4262 71.176 18.6736 70.9332 17.4271 70.3286C16.9332 69.9568 16.8156 69.6644 16.6275 69.3472C16.4158 69.03 15.9689 68.698 14.9812 68.2222C15.0752 68.8714 16.7215 70.5218 19.6848 72.202C19.5202 72.1821 19.2145 72.1177 18.8617 72.0186C18.5089 71.9195 18.1091 71.7857 17.6388 71.632C16.7215 71.3148 15.6867 70.9035 14.8871 70.4772C16.1571 70.9084 15.8984 70.616 16.1101 70.5169C14.3697 69.7933 13.5701 69.4711 13.1703 69.4018C12.747 69.3324 12.794 69.5157 12.9821 69.7784C13.3584 70.3038 14.4873 71.1562 13.4995 70.9778C13.9699 71.1761 14.5579 71.4338 15.1458 71.6915C15.7573 71.9492 16.2982 72.2119 16.8627 72.425C17.7329 72.762 18.3443 72.9603 18.2503 72.7967C19.2851 73.6591 22.46 74.7445 26.27 75.7902L27.7987 76.2115C28.3631 76.3502 28.904 76.489 29.4449 76.6228C29.9859 76.7616 30.5268 76.8954 31.0442 77.0292C31.5616 77.1581 32.079 77.2671 32.5729 77.3861C34.5485 77.847 36.2653 78.293 37.4177 78.7094C37.841 78.7341 34.9718 77.8173 39.4638 78.7094C42.7799 79.3685 44.1439 79.7105 44.9671 79.9682C45.3904 80.0971 45.6726 80.2061 45.9783 80.3201C46.3076 80.4341 46.6604 80.558 47.2954 80.7017C48.5419 80.8405 51.8344 81.3609 54.6801 81.8317C55.3857 81.9507 56.0912 82.0597 56.7262 82.1539C57.3612 82.253 57.9256 82.3372 58.396 82.4066C59.3132 82.5504 59.7836 82.6346 59.4544 82.6049C62.0179 82.9419 61.0771 82.6445 60.4186 82.3769C59.7601 82.1093 59.3838 81.8763 62.9586 82.3224C64.2991 82.4364 65.6162 82.595 66.9567 82.7783C68.3208 82.9468 69.7084 83.1451 71.096 83.3483C72.4836 83.5564 73.8711 83.7696 75.2587 83.9777C76.6463 84.1859 78.1514 84.3544 79.5861 84.5179C82.6905 85.0334 80.9031 84.8599 77.9868 84.5179C77.2578 84.4287 76.4346 84.3346 75.635 84.2404C74.8354 84.1363 74.0122 84.0273 73.2596 83.9232C71.7309 83.72 70.3669 83.5465 69.5908 83.4722C69.5908 83.4722 70.7667 83.6308 72.5541 83.8637C73.4478 83.9777 74.4826 84.1165 75.588 84.2602C76.7169 84.394 77.9398 84.5378 79.1627 84.6765C81.5851 84.959 84.0075 85.2465 85.8419 85.4497C87.6999 85.643 88.9464 85.7669 88.9464 85.7669C91.651 86.1634 90.8278 86.1584 88.6171 85.9701C87.5117 85.8759 86.0536 85.7421 84.5249 85.5736C83.0198 85.4001 81.444 85.2019 80.0565 85.0185C80.9502 85.1573 81.8908 85.301 82.8786 85.4348C83.8664 85.5736 84.8541 85.7124 85.889 85.8264C87.9586 86.0642 90.0753 86.2823 92.0273 86.4706C93.0151 86.5648 93.9557 86.6491 94.8494 86.7234C95.7431 86.7978 96.5898 86.8473 97.3659 86.8969C98.8946 86.991 100.094 87.0406 100.823 87.0406C102.046 87.1744 103.151 87.2934 104.163 87.3925C105.174 87.5015 106.138 87.5907 107.103 87.675C109.008 87.8484 110.865 88.017 113.17 88.2747C110.654 88.1359 109.243 88.1805 107.502 88.1855C106.632 88.1855 105.691 88.1855 104.469 88.131C103.269 88.0764 101.787 87.9823 99.9059 87.8138C87.6999 86.5846 105.033 87.9327 94.7789 86.8523L93.3208 87.001C91.2982 86.6887 89.3227 86.4855 87.2295 86.2922C86.1712 86.1981 85.1364 86.1039 84.0311 85.9998C82.9492 85.8908 81.8438 85.7718 80.6914 85.6331C78.2925 85.2564 81.4911 85.6182 83.2785 85.7966C74.9059 84.8004 68.9087 83.8043 62.159 83.1401C62.7704 83.2541 63.4054 83.3731 64.0639 83.492C64.7225 83.611 65.4516 83.715 66.1806 83.829C67.6388 84.0521 69.1675 84.28 70.7197 84.5031C73.8006 84.9689 77.1872 85.3506 80.2917 85.7421C83.3961 86.1386 86.4299 86.4558 88.8993 86.7482C91.3687 87.0357 93.2972 87.3033 94.4261 87.4966C94.4261 87.4966 95.9313 87.6205 98.2126 87.8038C99.3415 87.8931 100.658 88.0021 102.07 88.1161C102.775 88.1706 103.504 88.2301 104.257 88.2896C105.009 88.3441 105.762 88.3936 106.538 88.4482C109.595 88.6563 112.629 88.8694 114.911 89.028C117.215 89.1717 118.768 89.256 118.768 89.256C118.862 89.1965 116.91 88.9636 115.828 88.7852C115.287 88.691 114.981 88.6117 115.216 88.582C115.475 88.5522 116.275 88.572 118.039 88.6513C119.167 88.9041 121.425 89.1965 124.577 89.5236C126.152 89.6921 127.963 89.8408 129.986 89.9945C131.985 90.1481 134.196 90.3117 136.524 90.4752C133.467 89.9598 152.093 90.9956 147.625 90.4653C143.015 90.4009 141.134 89.9994 140.569 89.9399C149.694 90.4058 142.168 89.6971 147.178 89.9399C149.224 90.0688 150.776 90.1382 151.928 90.2026C153.081 90.2621 153.834 90.3116 154.304 90.3463C155.268 90.4157 155.151 90.4405 155.033 90.4653C154.892 90.4901 154.751 90.5198 155.668 90.5892C156.138 90.6288 156.844 90.6734 157.973 90.7379C159.102 90.8073 160.63 90.8766 162.7 90.9609C161.783 90.9708 160.513 90.9807 158.984 90.9807C157.479 90.9708 155.668 90.9609 153.716 90.9361C151.74 90.9113 149.577 90.8915 147.319 90.832C145.085 90.7726 142.756 90.6933 140.428 90.609C140.64 90.7032 142.944 90.8221 145.649 90.9609C146.331 90.9956 147.037 91.0352 147.719 91.0699C148.424 91.1046 149.13 91.1393 149.812 91.174C150.941 91.2335 151.999 91.2979 152.869 91.3673C148.683 91.0005 157.338 91.2434 153.081 90.9758C154.774 91.0303 156.515 91.0798 158.278 91.1393C160.042 91.1938 161.877 91.2137 163.711 91.2533C165.546 91.288 167.404 91.3177 169.309 91.3524C171.214 91.3822 173.142 91.3871 175.094 91.407C177.046 91.4218 178.998 91.4367 180.997 91.4516H187.041C191.134 91.4664 195.061 91.4367 199.083 91.4367C197.789 91.6845 191.11 91.7737 184.925 91.7836C183.396 91.7886 181.938 91.8034 180.621 91.8134C179.327 91.8134 178.198 91.8233 177.328 91.8481C175.611 91.8877 174.929 91.9819 176.176 92.1652C178.246 92.19 179.798 92.2049 181.068 92.19C182.338 92.1751 183.349 92.1454 184.266 92.1256C186.148 92.081 187.794 92.0463 191.087 92.1058C196.425 92.4477 209.784 92.2495 220.602 92.1751L215.804 92.0314C217.85 91.9571 220.767 91.9521 223.777 91.9422C226.787 91.9323 229.892 91.9422 232.291 91.9422L231.068 92.0215C231.068 92.0215 232.244 91.9868 233.396 91.9571C234.572 91.9174 235.748 91.8778 235.748 91.8778C236.477 91.8827 236.665 91.8976 236.642 91.9174C241.792 91.7142 255.056 91.6696 264.911 91.3475C264.84 91.2236 262.394 91.2682 259.36 91.3574C257.855 91.407 256.185 91.4565 254.61 91.5061C253.034 91.5457 251.529 91.5804 250.353 91.5903C249.694 91.5755 247.06 91.5755 245.155 91.5507C243.25 91.5259 242.051 91.4664 244.238 91.3524C247.295 91.3029 250.141 91.2384 252.869 91.1641C255.597 91.0947 258.231 90.9906 260.912 90.9014C262.253 90.8568 263.594 90.8073 264.981 90.7577C266.369 90.7081 267.756 90.6536 269.238 90.5991C270.696 90.5446 272.201 90.495 273.777 90.4455C275.353 90.4009 276.999 90.3463 278.716 90.2918C278.716 90.2918 277.61 90.3067 276.505 90.3216C275.4 90.3364 274.294 90.3463 274.294 90.3463C276.435 90.2076 278.998 90.0886 281.844 89.9994C283.278 89.9548 284.76 89.9102 286.312 89.8606C287.865 89.8111 289.464 89.7516 291.086 89.6872C303.128 89.4047 282.643 90.3662 289.981 90.2373C287.723 90.4455 284.501 90.5396 281.703 90.6338C278.904 90.728 276.576 90.8221 276.035 90.9956C276.035 90.9956 276.529 91.0055 277.258 91.0154C277.987 91.0253 278.951 91.0402 279.939 91.0501C281.891 91.0749 283.866 91.0997 283.866 91.0997C286.971 90.9014 290.31 90.7973 293.438 90.723C295.014 90.6883 296.519 90.6536 297.907 90.6239C299.294 90.5892 300.564 90.5396 301.67 90.4752C301.67 90.4752 300.447 90.4901 299.224 90.5049C298.612 90.5148 298.001 90.5198 297.53 90.5198C297.084 90.5198 296.778 90.5248 296.778 90.5248C297.483 90.2323 302.046 90.2274 304.304 90.1679L300.753 89.9201C297.295 90.049 294.45 90.2125 291.816 90.3662C289.182 90.5198 286.783 90.6437 284.172 90.6041C287.229 90.4802 289.299 90.3513 290.945 90.2373C292.592 90.1233 293.791 90.0291 295.085 89.93C297.672 89.7417 300.517 89.5137 307.832 89.1866C308.655 89.3105 305.08 89.37 303.692 89.5534C306.256 89.4939 308.749 89.3303 311.642 89.1222C313.076 89.0231 314.605 88.919 316.298 88.8149C317.145 88.7653 318.039 88.7207 318.956 88.6712C319.873 88.6216 320.837 88.572 321.849 88.5274C320.743 88.6166 319.45 88.7257 318.25 88.8248C317.027 88.919 315.898 89.0181 315.075 89.0974C313.452 89.2659 313.17 89.3749 316.275 89.3204C316.275 89.3204 317.262 89.1916 318.274 89.0627C318.768 88.9983 319.261 88.9338 319.638 88.8793C320.014 88.8298 320.249 88.7951 320.249 88.7951C324.012 88.6216 322.648 88.8248 324.177 88.7406C326.858 88.6117 326.435 88.5572 326.435 88.4779C326.435 88.4382 326.505 88.3936 327.117 88.3342C327.728 88.2697 328.88 88.2003 330.95 88.0764C332.267 88.0517 335.089 87.9278 333.984 88.0764C338.735 87.7592 339.84 87.6601 340.828 87.5313C341.816 87.4074 342.686 87.2735 346.943 86.8671C339.087 87.4718 338.123 87.0604 346.096 86.3913C347.531 86.2922 348.871 86.1832 350.165 86.0642C351.458 85.9453 352.705 85.8363 353.904 85.7272C355.103 85.6132 356.256 85.5092 357.361 85.4051C358.49 85.306 359.548 85.1821 360.607 85.078C362.7 84.8649 364.699 84.6716 366.722 84.508C368.697 84.3246 370.649 84.1661 372.719 84.0471C372.719 84.0471 373.824 83.8687 374.906 83.6903C375.47 83.606 375.988 83.5069 376.388 83.4375C376.787 83.3681 377.046 83.3186 377.046 83.3186C375.87 83.6308 377.587 83.4425 380.033 83.1352C381.256 82.9766 382.667 82.7932 383.984 82.6247C385.254 82.4413 386.453 82.2728 387.3 82.1737C388.241 82.2282 384.431 82.7734 380.339 83.2888C376.34 83.834 372.037 84.3445 372.601 84.5675C379.892 83.8092 377.14 84.29 375.094 84.6716C376.058 84.5576 376.834 84.4634 377.399 84.3792C377.987 84.2949 378.387 84.2255 378.692 84.1611C379.28 84.0421 379.374 83.9728 379.327 83.9133C379.233 83.7943 378.575 83.7299 380.009 83.4325C380.08 83.4623 380.927 83.378 382.103 83.2492C383.278 83.1154 384.784 82.9518 386.101 82.7783C388.758 82.4463 390.922 82.2034 389.111 82.6148C390.687 82.4017 391.91 82.2183 392.874 82.0498C393.862 81.8813 394.567 81.7177 395.273 81.569C396.66 81.2717 397.836 81.009 400.141 80.6918C399.835 80.895 399.506 81.1428 400.376 81.2023C400.659 81.0536 406.585 80.221 407.69 80.0475C406.491 80.1714 408.937 79.5023 404.092 80.4242C404.233 80.3251 405.056 80.1466 406.185 79.9385C407.291 79.7254 408.772 79.4924 410.113 79.2397C412.817 78.749 415.357 78.293 414.887 78.2435C415.616 78.3079 418.203 77.8073 421.261 77.1829C422.037 77.0243 422.836 76.8657 423.612 76.6922C424.389 76.5188 425.165 76.3453 425.941 76.1768C427.469 75.8398 428.974 75.5275 430.244 75.2847C428.88 75.1162 426.905 75.6316 424.859 76.2016C422.836 76.7765 420.484 77.3464 418.791 77.3216C420.249 76.9549 422.366 76.4989 424.671 75.9488C425.87 75.6812 427.14 75.3937 428.457 75.0914C429.751 74.7791 431.068 74.457 432.408 74.1299C433.09 73.9664 433.772 73.7978 434.454 73.6343C435.136 73.4658 435.771 73.2874 436.43 73.1139C437.723 72.762 439.017 72.4101 440.287 72.0582C441.51 71.7014 442.639 71.3396 443.721 70.9877C444.802 70.6358 445.861 70.2988 446.684 69.9568C454.139 67.8307 447.672 70.0956 450.071 69.7834C443.909 71.8798 441.275 72.2416 435.325 73.9564C437.23 73.5352 439.252 73.0098 441.416 72.4547C442.521 72.1821 443.509 71.8798 444.544 71.5825C445.555 71.2851 446.59 70.9828 447.601 70.6804C449.506 70.0708 451.27 69.4563 452.822 68.9111C454.28 68.3511 455.456 67.8505 456.303 67.459C457.079 67.1864 457.785 66.9485 458.396 66.7304C459.055 66.5123 459.666 66.324 460.277 66.1456C461.477 65.7937 462.723 65.5112 463.805 65.194C466.039 64.5646 468.485 63.8658 470.978 62.3938C469.261 62.6912 469.191 62.6069 467.027 63.4594C468.203 62.6713 470.484 61.8288 471.919 60.9912C472.248 60.4361 468.885 62.2104 470.437 61.021C471.425 60.5898 473.283 59.6431 473.589 59.8761L473.33 60.0743C474.294 59.3656 475 58.8898 475.729 58.5379C476.435 58.191 477.093 57.968 477.61 57.745C478.151 57.5269 478.645 57.3187 479.069 57.0015C479.304 56.8479 479.515 56.6596 479.68 56.4365C479.774 56.3225 479.868 56.2036 479.962 56.0698C480.033 55.931 480.08 55.7873 480.127 55.6237C479.774 55.7129 479.61 55.9013 479.374 56.1342C479.116 56.3672 478.833 56.6546 478.269 56.947C477.587 57.1552 477.493 56.8628 477.705 56.382C477.822 56.1441 477.963 55.8517 478.128 55.5444C478.293 55.2421 478.481 54.9299 478.716 54.6424C478.951 54.7614 479.233 54.5136 479.61 54.1369C479.962 53.7602 480.268 53.2547 480.715 52.8533C481.514 52.6005 481.185 53.111 480.691 53.7354C480.48 54.0477 480.08 54.3847 479.845 54.6722C479.61 54.9596 479.445 55.1975 479.515 55.3065C479.515 55.3065 480.151 54.7564 480.785 54.2063C481.115 53.9287 481.303 53.6512 481.538 53.443C481.726 53.2349 481.844 53.0961 481.844 53.0961L481.279 53.557C481.279 53.557 481.515 52.9425 481.75 52.323C481.891 52.0157 481.891 51.7084 481.938 51.4755C481.961 51.2425 482.008 51.0889 482.008 51.0889C481.35 52.7938 480.103 51.8571 480.409 51.1186C480.691 50.6973 481.044 50.281 481.279 49.8895C481.491 49.498 481.726 49.1362 481.961 48.8338C482.197 48.5315 482.432 48.2887 482.714 48.1301C482.973 47.9764 483.208 47.907 483.537 47.9616C482.902 47.8525 482.667 47.2727 482.573 46.5342C482.526 46.3508 482.573 46.1526 482.479 45.9543C482.432 45.7561 482.385 45.5479 482.314 45.3447C482.197 44.9334 482.079 44.522 481.985 44.1503C481.703 45.7809 480.95 44.3634 480.386 43.9025C480.386 43.9025 480.48 43.2929 480.574 42.6783C480.621 42.3711 480.691 42.0638 480.644 41.8358C480.621 41.6078 480.621 41.4542 480.621 41.4542C481.138 42.0886 481.326 42.376 481.491 42.4504C481.656 42.5296 481.773 42.3958 481.891 42.1976C482.055 41.8061 482.032 41.1667 482.69 41.4591C483.114 41.6375 483.514 41.8705 483.749 42.1431C483.984 42.4157 484.125 42.7279 484.243 43.06C484.337 43.3871 484.431 43.7439 484.454 44.0958C484.454 44.4477 484.407 44.8095 484.407 45.1514C484.666 44.8144 484.831 44.4972 484.925 44.2048C485.019 43.9124 484.925 43.6349 484.854 43.3771C484.666 42.8568 484.313 42.4008 483.866 41.9547C483.349 41.5136 482.808 41.0825 482.361 40.6166C482.126 40.3836 481.961 40.1408 481.773 39.888C481.562 39.6303 481.397 39.3627 481.279 39.0703C481.585 39.0604 481.938 39.1 482.338 39.2685C482.526 39.3528 482.737 39.4717 482.926 39.6303C483.114 39.7889 483.326 39.9921 483.42 40.2498C483.537 40.0367 482.761 39.5163 481.914 38.8572C481.491 38.5301 481.091 38.1583 480.644 37.7817C480.151 37.405 479.751 37.0085 479.469 36.612C479.539 37.0432 479.351 37.9601 477.117 36.4633C477.117 36.4633 477.07 36.3345 476.976 36.1412C476.905 35.9479 476.693 35.6952 476.529 35.4325C476.176 34.917 475.823 34.4016 475.823 34.4016C475.141 33.8168 474.412 33.4946 473.942 33.2964C473.448 33.0981 473.095 33.0288 472.742 32.9742C471.99 32.8702 471.284 32.8156 469.285 31.9285C469.285 31.9285 469.379 32.0078 469.497 32.1267C469.614 32.2457 469.755 32.4092 469.897 32.5678C470.179 32.885 470.437 33.2072 470.437 33.2072C470.061 33.1824 469.591 33.0139 469.12 32.7809C468.626 32.548 468.133 32.2358 467.521 31.9483C466.345 31.3635 465.193 30.7935 464.487 30.8282C465.569 31.3833 466.651 31.7897 467.709 32.211C468.697 32.6422 469.638 33.0882 470.461 33.6978C470.179 33.9704 469.356 33.6037 468.391 33.0932C467.897 32.8355 467.38 32.5431 466.816 32.2804C466.228 32.0177 465.64 31.7848 465.169 31.6311C464.111 31.0215 463.405 30.5953 462.841 30.2682C462.253 29.946 461.853 29.723 461.524 29.5198C461.195 29.3166 460.912 29.1233 460.536 28.8706C460.16 28.6178 459.713 28.2957 458.866 27.8397C459.313 27.7753 460.136 27.8992 461.124 28.1222C462.065 28.3502 463.194 28.6723 464.299 28.9846C465.404 29.2968 466.51 29.5991 467.451 29.7875C468.391 29.9708 469.12 30.0501 469.567 29.8915C468.227 29.3067 466.651 28.6674 465.075 28.0082C463.453 27.349 461.642 26.6899 460.019 26.0406C456.562 24.7619 453.387 23.5824 451.529 22.8241C449.929 22.3533 448.683 22.0212 447.695 21.7982C446.66 21.5801 445.908 21.4711 445.367 21.4265C444.285 21.3472 444.05 21.5454 443.979 21.7585C441.204 21.0102 440.169 20.5988 438.688 20.0685C438.688 20.0685 438.923 20.118 439.252 20.1874C439.581 20.2618 440.028 20.3609 440.451 20.46C441.322 20.6632 442.192 20.8615 442.192 20.8615C441.157 20.579 440.193 20.3113 439.205 20.0635C438.217 19.8207 437.229 19.5828 436.312 19.3548C434.431 18.9038 432.761 18.4677 430.832 18.0613C428.974 17.6449 427.117 17.2286 425.094 16.7776C424.083 16.5596 423.024 16.3365 421.896 16.0986C420.79 15.8607 419.638 15.608 418.391 15.3503C412.465 14.2351 413.876 14.9092 414.511 15.3403C414.511 15.3403 414.111 15.266 413.523 15.152C412.935 15.038 412.159 14.8844 411.359 14.7407C409.76 14.4482 408.161 14.1558 408.161 14.1558L408.937 14.3838C406.844 14.3293 402.328 13.4075 398.213 12.6839C399.624 12.7532 401.035 12.8226 402.446 12.8871C408.137 13.1349 413.758 13.3777 419.332 13.6206L410.936 13.4768C417.498 13.6107 428.786 14.0864 432.408 14.2599L431.467 14.245C443.156 15.0281 445.226 14.3293 454.116 15.0678L452.258 15.043C459.454 15.2809 465.075 15.5733 470.696 15.8409C476.293 16.1185 481.82 16.3811 488.876 16.5397C490.052 16.6042 491.063 16.6686 491.957 16.7231C494.12 16.7231 496.261 16.7082 498.424 16.6983C498.683 16.2771 499.059 15.8756 499.482 15.4791L499.812 15.5336ZM400.494 17.5458C399.788 17.3129 399.483 17.1345 400.188 17.1939C401.905 17.7193 407.667 18.8542 406.82 18.9434C406.82 18.9434 406.326 18.8542 405.809 18.765C405.315 18.6758 404.798 18.5916 404.798 18.5916C406.068 18.8691 407.126 19.1318 408.114 19.3598C409.078 19.5927 410.019 19.7909 410.748 19.9743C412.206 20.3411 413.335 20.6038 414.276 20.7921C415.31 20.8763 415.64 20.8169 416.204 20.8218C416.486 20.8218 416.815 20.8466 417.309 20.916C417.568 20.9507 417.85 20.9953 418.203 21.0548C418.532 21.1192 418.909 21.1985 419.379 21.3026C423.024 22.4127 421.778 22.269 420.179 22.0509C418.579 21.8279 416.698 21.5355 418.956 22.3037C418.956 22.3037 419.473 22.4177 420.226 22.5912C420.955 22.7646 421.99 22.9876 422.93 23.2305C424.835 23.7162 426.764 24.1969 426.764 24.1969C426.764 24.1969 426.952 24.3357 427.14 24.4794C427.234 24.5488 427.328 24.6182 427.399 24.6727L427.493 24.7619C428.575 25.1683 429.68 25.5599 430.785 25.9365C431.35 26.1249 431.914 26.3083 432.479 26.4916C433.02 26.675 433.561 26.8633 434.078 27.0467C435.16 27.4135 436.242 27.7703 437.371 28.1222C438.476 28.479 439.487 28.8408 440.569 29.2026C444.896 30.6399 448.989 32.1664 452.399 34.02C452.07 34.0646 451.482 33.9308 450.776 33.6978C450 33.4649 449.083 33.1279 448.166 32.7562C446.402 32.0127 444.167 31.1603 443.18 30.7192C443.768 31.3437 445.484 31.9979 447.037 32.7264C447.836 33.0882 448.706 33.4599 449.459 33.8416C450.141 34.2232 450.729 34.6147 451.152 35.0112C451.411 35.1896 451.717 35.3581 451.999 35.5217C452.281 35.6852 452.516 35.8389 452.799 35.9876C453.316 36.28 453.88 36.5278 454.374 36.726C455.386 37.1225 456.256 37.3059 456.491 37.1671C459.125 38.9513 457.079 38.5003 457.079 38.7432C457.361 38.8076 457.667 38.8968 457.949 39.0108C458.208 39.1248 458.443 39.2685 458.678 39.4222C459.125 39.7344 459.572 40.121 459.995 40.5422C460.23 40.7504 460.348 40.9685 460.513 41.1865C460.654 41.4096 460.795 41.6276 460.96 41.8457C461.101 42.0638 461.265 42.2818 461.406 42.485C461.524 42.6932 461.618 42.8964 461.712 43.0847L460.771 43.169C460.771 43.169 461.289 43.7489 461.806 44.3287C462.182 44.9135 462.535 45.5033 462.535 45.5033C462.559 44.8937 463.499 45.4389 464.111 45.4339V46.0435C464.675 45.4637 464.84 44.8342 464.722 44.1949C464.605 43.8777 464.417 43.5506 464.229 43.2235C464.134 43.06 464.017 42.8964 463.899 42.7329C463.805 42.5693 463.664 42.4057 463.499 42.2422C463.194 41.9151 462.888 41.588 462.606 41.2658C462.347 40.9437 462.135 40.6215 461.83 40.3043C461.571 39.9872 461.383 39.67 461.265 39.3577C461.218 39.1991 461.195 39.0405 461.195 38.8869C461.148 38.7333 461.148 38.5796 461.148 38.421C462.324 39.1198 461.736 38.1336 462.911 38.8423C463.358 39.4519 463.335 39.5808 463.029 39.66C464.111 39.9921 465.663 40.9486 464.464 39.66C466.604 39.6353 468.203 42.262 469.261 44.076C469.05 44.4427 468.72 44.5319 468.462 44.4477C468.321 44.408 468.203 44.3238 468.062 44.2098C467.897 44.0958 467.733 43.9521 467.568 43.7935C466.886 43.1541 466.181 42.2471 465.381 41.8953C465.522 42.0638 465.71 42.2224 465.898 42.3859C466.063 42.5495 466.228 42.7081 466.392 42.8815C466.698 43.2285 466.933 43.615 466.863 44.1156L465.263 43.8926C465.381 44.0462 465.475 44.18 465.569 44.3039C465.64 44.4278 465.687 44.5319 465.757 44.6261C465.875 44.8095 465.992 44.9482 466.087 45.0374C466.298 45.2258 466.486 45.2456 466.675 45.2109C467.074 45.1415 467.545 44.8243 468.321 45.1019C468.838 45.2704 469.097 45.4934 469.214 45.7511C469.355 46.0039 469.261 46.2913 469.097 46.5738C468.768 47.1438 468.274 47.7038 468.25 48.0458C468.25 48.0458 468.25 47.9963 468.25 47.9269C468.227 47.8575 468.203 47.7584 468.156 47.6692C468.086 47.4808 468.015 47.2925 468.015 47.2925C466.98 49.2204 468.321 49.6813 467.121 51.4308C467.121 51.4308 466.722 51.6241 466.228 51.8174C465.757 52.0107 465.287 52.204 465.287 52.204C465.687 51.9413 466.04 51.6985 466.228 51.4755C466.416 51.2524 466.51 51.0492 466.58 50.8609C466.674 50.4842 466.58 50.1769 466.439 49.8945C466.086 49.3344 465.475 48.8933 466.11 48.2788C464.84 49.8498 464.111 49.6516 463.594 48.9627C463.311 48.6158 463.17 48.1449 462.865 47.7038C462.559 47.2578 462.253 46.8415 461.971 46.6036C462.018 47.2677 462.041 47.9021 461.665 48.4621C461.5 48.7397 461.312 48.9974 461.101 49.2303C460.889 49.4633 460.654 49.6714 460.325 49.8449C460.536 50.3355 460.442 50.8312 460.207 51.3317C459.878 51.8273 459.36 52.323 458.89 52.8136C458.678 53.0614 458.372 53.3043 458.09 53.5471C457.832 53.79 457.573 54.0328 457.385 54.2757C457.15 54.5185 457.055 54.7663 456.867 55.0042C456.703 55.2421 456.609 55.485 456.609 55.7278C455.033 56.7091 456.726 54.7961 455.315 55.8468C452.563 57.7598 449.365 59.772 445.884 61.7892C443.556 62.7754 443.321 62.5425 442.098 62.7606C441.392 63.053 440.593 63.3305 439.887 63.5932C439.182 63.8608 438.476 64.1185 437.841 64.3713C437.23 64.629 436.524 64.8619 435.889 65.0949C435.254 65.3328 434.643 65.5608 434.055 65.7838C432.926 66.2397 431.679 66.6561 430.55 67.0773C429.986 67.2855 429.421 67.4986 428.857 67.7068L427.07 68.3164C426.482 68.5196 425.87 68.7228 425.259 68.926C424.953 69.0301 424.624 69.1341 424.318 69.2382C423.989 69.3373 423.659 69.4414 423.307 69.5455C421.943 69.9519 420.531 70.3781 418.932 70.8192C417.286 71.2454 415.522 71.6915 413.547 72.1623C412.512 72.3853 411.453 72.6183 410.324 72.8611C409.76 72.9801 409.172 73.104 408.584 73.2279C407.996 73.3518 407.385 73.4757 406.726 73.5946C406.726 73.5946 406.891 73.55 407.103 73.4856C407.338 73.4212 407.62 73.327 407.879 73.2328C408.443 73.0495 408.984 72.8611 408.984 72.8611C406.961 73.2973 404.868 73.6541 403.222 74.001C402.399 74.1745 401.67 74.3381 401.058 74.4967C400.447 74.6552 399.906 74.799 399.553 74.9427C397.719 75.0914 395.767 75.3987 393.603 75.7753C391.392 76.1322 389.111 76.5881 386.642 77.0243C385.395 77.2374 384.125 77.4505 382.879 77.6636C382.244 77.7677 381.609 77.8668 380.997 77.9709C380.362 78.07 379.704 78.1543 379.069 78.2435C377.775 78.4169 376.505 78.5755 375.259 78.7044C374.036 78.8382 372.813 78.9373 371.637 78.9968C368.956 79.2942 367.004 79.5519 365.428 79.7848C363.805 79.9979 362.582 80.1962 361.453 80.3845C360.324 80.5729 359.29 80.7761 357.949 80.9694C356.609 81.1626 355.056 81.3658 352.916 81.6037C352.681 81.4897 354.821 81.014 350.235 81.4055C336.007 82.8229 321.566 83.8489 306.397 84.6716C291.204 85.4943 275.212 86.0742 257.385 86.4954C257.667 86.4409 259.431 86.3616 260.324 86.3269C257.432 86.3814 254.562 86.4558 251.693 86.5103C248.824 86.5648 245.955 86.6292 243.109 86.6937C237.418 86.8027 231.773 86.9316 226.223 87.0109C215.146 87.1843 204.492 87.2785 194.779 87.1249C192.897 87.1645 189.417 87.1595 186.712 87.1942C184.008 87.224 182.15 87.2835 183.749 87.4173C188.147 87.5015 188.688 87.789 188.358 87.9624C186.218 87.9624 184.501 87.9624 183.067 87.9476C181.656 87.9327 180.55 87.8931 179.68 87.8633C177.94 87.7989 177.117 87.7196 176.458 87.6453C175.8 87.566 175.329 87.4916 174.318 87.4173C173.307 87.3578 171.754 87.2735 168.932 87.1992C167.309 86.9266 169.144 86.9167 171.355 86.9266C173.589 86.9464 176.27 86.9266 176.364 86.7482C176.364 86.7482 175.353 86.7432 173.848 86.7333C172.342 86.7185 170.32 86.6788 168.297 86.6441C166.275 86.6094 164.229 86.5896 162.723 86.545C161.195 86.5053 160.183 86.4806 160.183 86.4806C157.973 86.3467 155.738 86.2427 153.504 86.1435C151.293 86.0246 149.106 85.9156 146.943 85.8115C145.861 85.757 144.779 85.7025 143.721 85.6479C142.662 85.5835 141.651 85.5141 140.64 85.4497C138.617 85.3109 136.665 85.1622 134.807 84.9888C138.147 85.2514 136.383 84.7509 141.816 85.2713C140.922 85.2366 141.463 85.301 140.593 85.2663C142.215 85.3704 143.532 85.4646 144.661 85.524C145.79 85.5835 146.684 85.6232 147.436 85.6529C148.942 85.7124 149.812 85.7322 150.658 85.7421C151.505 85.752 152.305 85.757 153.622 85.7917C154.586 85.8165 155.809 85.8412 157.549 85.8957C155.574 85.8313 153.504 85.7619 151.411 85.6579C149.953 85.5934 148.471 85.5191 146.966 85.4546C145.484 85.3853 143.979 85.3159 142.521 85.2217C139.581 85.0482 136.665 84.8748 133.96 84.6914C131.279 84.4882 128.786 84.29 126.599 84.1066C126.975 84.2107 126.693 84.2354 126.011 84.2156C125.329 84.1958 124.271 84.1314 123.119 84.0372C120.767 83.8538 117.874 83.611 116.486 83.5911L115.992 83.5168C115.734 83.6506 110.23 83.1996 108.49 83.0757L107.103 82.5305C103.269 82.1985 107.761 82.818 103.975 82.4661C102.634 82.3422 100.447 82.1192 97.9304 81.8515C97.2954 81.7822 96.6604 81.7128 95.9783 81.6434C95.3434 81.5641 94.6849 81.4798 94.0264 81.4005C92.7093 81.232 91.3452 81.0586 90.0282 80.8901C87.3706 80.558 85.0424 80.1764 83.302 79.874C81.5616 79.5668 80.4327 79.3289 80.4092 79.205C77.5165 78.7887 75.6114 78.5359 73.6124 78.293C73.1185 78.2286 72.6246 78.1642 72.1072 78.0998C71.8485 78.0651 71.5898 78.0304 71.3311 77.9957C71.0724 77.956 70.8373 77.9114 70.5786 77.8718C69.5438 77.6983 68.3913 77.5001 67.0743 77.2423C67.8034 77.2473 69.238 77.4555 69.5908 77.4555C68.1797 77.1878 66.698 76.9103 65.1928 76.6327C64.4167 76.4989 63.7582 76.3403 63.0291 76.1916C62.3001 76.043 61.5946 75.8893 60.8655 75.7357C57.8316 75.1459 55.1975 74.4669 52.4459 73.8127C51.7168 73.6491 51.1759 73.4856 50.6114 73.327C50.047 73.1635 49.4355 73.0148 48.9181 72.8363C48.3772 72.6678 47.8598 72.4944 47.3424 72.3259C46.825 72.1524 46.3547 71.974 45.8843 71.8005C44.8965 71.4585 44.0969 71.0819 43.2503 70.735C42.4742 70.3732 41.7451 70.0213 41.1101 69.6694C38.4525 68.589 36.3123 67.5184 34.4779 66.547C33.5136 66.0663 32.714 65.5955 31.8673 65.1643C31.0912 64.7281 30.2681 64.3267 29.539 63.95C29.9624 64.2771 30.7855 64.9214 31.1148 65.3427C31.4911 65.759 31.4205 65.9622 30.08 65.3972C28.4807 64.7826 27.3753 63.7468 26.0583 62.7209C27.0696 62.9192 24.5767 60.0694 26.9991 62.1063C27.7517 61.804 26.6463 60.7087 26.0113 59.6828C25.4704 58.6271 24.9294 57.6359 26.0113 57.6409C25.8467 57.5219 25.6821 57.2444 25.541 56.8776C25.3998 56.5109 25.2352 56.0599 25.2117 55.589C25.1881 55.1182 25.0471 54.6276 25.0236 54.1815C25.0236 53.7404 24.9294 53.3439 24.7413 53.0614C25.2116 52.9425 25.2587 53.3439 25.2587 53.7751C25.2587 53.9932 25.2587 54.2162 25.2822 54.3847C25.3293 54.5532 25.4469 54.6672 25.588 54.6672C25.588 54.6672 25.588 54.5829 25.541 54.4541C25.541 54.3302 25.541 54.1617 25.541 53.9882C25.541 53.6512 25.5644 53.3142 25.5644 53.3142H26.1524C26.3876 52.6798 26.6698 52.1693 26.6698 51.7381C26.6698 51.525 26.6698 51.3268 26.6462 51.1434C26.6462 50.96 26.6463 50.7915 26.5757 50.6329C26.4346 49.9886 26.0348 49.4583 26.6228 48.7L26.7874 48.7694C26.7874 48.7694 26.952 48.5067 27.1166 48.249C27.1872 48.1152 27.2813 47.9863 27.3518 47.8922C27.4459 47.798 27.4929 47.7286 27.4929 47.7286C27.4929 47.7286 27.493 47.8079 27.5165 47.9269C27.5635 48.0458 27.6105 48.2094 27.6811 48.368C27.7987 48.6852 27.8928 49.0023 27.8928 49.0023C28.222 48.5959 28.4102 48.2341 28.5983 47.8922C28.81 47.5502 28.9981 47.233 29.1627 46.9059C29.2568 46.7424 29.3274 46.5738 29.4215 46.4053C29.5391 46.2368 29.7037 46.0634 29.8683 45.8849C30.2211 45.5231 30.5738 45.1267 31.2088 44.6806L31.985 44.5418L33.2314 43.4465C33.0198 43.6299 33.1374 43.7092 33.4666 43.6051C33.4901 43.3276 33.9605 42.9906 34.4779 42.6089C34.7601 42.4206 35.0424 42.2224 35.3716 42.0241C35.7009 41.8259 36.1006 41.6276 36.5004 41.4244C37.2765 41.023 38.0056 40.6215 38.7347 40.2647C39.4403 39.9079 40.0047 39.5857 40.2634 39.333C41.1571 39.0058 42.4977 38.7679 43.6736 38.4755C44.873 38.1881 45.9078 37.8461 46.6839 37.3555L47.8128 37.7222C47.0367 37.9849 46.4722 38.198 45.9783 38.3715C45.4844 38.54 45.0847 38.6738 44.7554 38.768C44.0969 38.9662 43.6736 39.0554 43.2503 39.1496C42.8269 39.2437 42.4506 39.3478 41.8392 39.5708C41.2512 39.7988 40.3575 40.1458 39.158 40.7454C39.8871 40.5522 40.8278 40.3192 41.7451 40.0466C42.2154 39.9079 42.7093 39.7592 43.2032 39.6006C43.4384 39.5213 43.6971 39.442 43.9558 39.3577C44.2145 39.2735 44.4967 39.1892 44.7789 39.105C45.9078 38.763 47.0367 38.3863 48.2831 37.9997C49.5767 37.6132 50.8702 37.2018 52.2107 36.7855C57.6905 35.1252 64.2991 33.3658 70.0376 32.0276C74.2474 30.8629 80.9501 29.5248 87.1354 28.3898C93.2737 27.24 98.9181 26.2835 100.447 25.664L99.9765 26.0456C99.9765 26.0456 100.282 26.001 100.8 25.9217C101.341 25.8473 102.07 25.7284 102.987 25.5995C104.845 25.3418 107.267 24.9899 109.784 24.6529C114.746 23.9739 119.873 23.3445 119.873 23.3445C128.175 22.1501 137.088 21.0895 145.602 20.128C147.742 19.8802 149.788 19.6621 151.811 19.444C153.81 19.216 155.833 19.0178 157.785 18.8146C159.713 18.6064 161.642 18.4181 163.476 18.2248C165.334 18.0266 167.098 17.8382 168.815 17.6598C168.815 17.6598 169.873 17.6251 170.931 17.5954C171.99 17.5607 173.048 17.531 173.048 17.531C179.845 16.6141 192.709 15.6526 205.174 14.8844C217.615 14.0964 229.633 13.4917 234.525 12.8821C243.697 12.7086 232.079 13.2935 231.326 13.4768C234.666 13.3827 238.97 13.0804 243.321 12.8524C247.648 12.6145 252.022 12.441 255.339 12.5203C255.409 12.6442 246.049 12.9317 250.329 12.8722C252.822 12.9118 254.492 12.7979 256.279 12.6888C258.043 12.5847 259.925 12.4807 262.723 12.5352C260.136 12.3568 271.19 11.7719 279.421 11.5786C278.402 11.5919 277.673 11.5935 277.234 11.5836C275.964 11.42 282.102 11.3358 285.466 11.2615C285.466 11.2615 285.16 11.316 284.266 11.3507C305.433 10.8402 328.434 10.637 351.505 11.0186C353.41 11.0483 355.292 11.083 357.197 11.1276C357.502 11.1574 357.808 11.1871 358.09 11.2168C358.702 11.2763 359.29 11.3259 359.854 11.3804C360.442 11.4349 361.007 11.4845 361.595 11.534C362.794 11.6282 364.017 11.7075 365.475 11.7719C362.465 11.4052 361.171 11.43 358.772 11.1673C360.16 11.197 361.571 11.2317 362.982 11.2714C369.896 12.1387 374.53 13.1349 378.951 13.8436C378.951 13.8436 378.622 13.8039 378.128 13.7395C377.611 13.68 376.929 13.6007 376.27 13.5264C374.906 13.3678 373.565 13.2142 373.565 13.2142H373.942C373.377 13.1696 372.554 13.0704 371.66 12.9614C370.743 12.8524 369.732 12.7285 368.791 12.6145C366.933 12.3915 365.357 12.2229 365.451 12.3766C368.109 12.5699 370.226 12.8474 372.413 13.1745C374.577 13.5115 376.952 13.8585 380.127 14.2401H379.751C381.115 14.4185 382.385 14.6019 383.608 14.7853C384.784 14.9785 385.912 15.1768 386.947 15.3651C389.087 15.7467 390.898 16.1482 392.662 16.5149C394.45 16.8767 396.025 17.2336 397.742 17.531C399.459 17.8234 401.152 18.086 403.128 18.2793C402.258 18.1108 401.199 17.8135 400.517 17.5706L400.494 17.5458Z" fill="#FFE093"/>
</svg>
