<svg width="30" height="30" viewBox="0 0 30 30" fill="none" xmlns="http://www.w3.org/2000/svg">
<g clip-path="url(#clip0_1_509)">
<path d="M8.33333 4.1665H3.33333C2.44928 4.1665 1.60143 4.51769 0.976311 5.14281C0.35119 5.76794 0 6.61578 0 7.49984L0 12.4998H8.33333V4.1665ZM26.6667 4.1665H13.3333V12.4998H30V7.49984C30 6.61578 29.6488 5.76794 29.0237 5.14281C28.3986 4.51769 27.5507 4.1665 26.6667 4.1665ZM8.33333 25.8332H3.33333C2.44928 25.8332 1.60143 25.482 0.976311 24.8569C0.35119 24.2317 0 23.3839 0 22.4998V17.4998H8.33333V25.8332ZM26.6667 25.8332H13.3333V17.4998H30V22.4998C30 23.3839 29.6488 24.2317 29.0237 24.8569C28.3986 25.482 27.5507 25.8332 26.6667 25.8332Z" fill="#003897"/>
<path d="M12.0833 4.1665H9.63L9.60917 13.7498H0V16.2498H9.60417L9.58333 25.8332H12.0833V16.2498H30V13.7498H12.0833V4.1665Z" fill="#D72828"/>
<path d="M12.0833 25.8332H13.3333V17.4998H30V16.2498H12.0833V25.8332ZM13.3333 4.1665H12.0833V13.7498H30V12.4998H13.3333V4.1665ZM9.58333 4.1665H8.33333V12.4998H0V13.7498H9.58333V4.1665ZM0 16.2498V17.4998H8.33333V25.8332H9.58333V16.2498H0Z" fill="#EEEEEE"/>
</g>
<defs>
<clipPath id="clip0_1_509">
<rect width="30" height="30" fill="white"/>
</clipPath>
</defs>
</svg>
