<svg width="26" height="25" viewBox="0 0 26 25" fill="none" xmlns="http://www.w3.org/2000/svg">
<path d="M12.9334 0.973755C10.5436 0.973755 8.20755 1.66462 6.22054 2.95897C4.23354 4.25333 2.68486 6.09306 1.77034 8.24549C0.855821 10.3979 0.616542 12.7664 1.08276 15.0514C1.54898 17.3365 2.69975 19.4354 4.38956 21.0828C6.07937 22.7302 8.23232 23.8521 10.5761 24.3066C12.92 24.7611 15.3494 24.5278 17.5573 23.6363C19.7651 22.7447 21.6522 21.2349 22.9799 19.2977C24.3075 17.3606 25.0162 15.0831 25.0162 12.7534C25.0162 9.62921 23.7432 6.63302 21.4772 4.42392C19.2112 2.21482 16.1379 0.973755 12.9334 0.973755ZM11.2073 17.4568L6.89199 13.2498L8.26425 11.912L11.2073 14.7811L17.6025 8.54635L18.98 9.88081L11.2073 17.4568Z" fill="white"/>
</svg>
