<svg width="31" height="30" viewBox="0 0 31 30" fill="none" xmlns="http://www.w3.org/2000/svg">
<g clip-path="url(#clip0_1_427)">
<path d="M0.0380859 11.7188H30.0381V18.2812H0.0380859V11.7188Z" fill="#EC1C24"/>
<path d="M0.0380859 10.3125H30.0381V11.7188H0.0380859V10.3125ZM0.0380859 18.2812H30.0381V19.6875H0.0380859V18.2812Z" fill="#E6E7E8"/>
<path d="M25.3506 4.6875H4.72559C1.61918 4.6875 0.0380859 6.99609 0.0380859 9.84375V10.3125H30.0381V9.84375C30.0381 6.99609 28.457 4.6875 25.3506 4.6875Z" fill="#25333A"/>
<path d="M0.0380859 20.1562C0.0380859 23.0039 1.61918 25.3125 4.72559 25.3125H25.3506C28.457 25.3125 30.0381 23.0039 30.0381 20.1562V19.6875H0.0380859V20.1562Z" fill="#137A08"/>
<path d="M10.7424 22.4002L18.1065 10.0449C18.1598 9.47705 18.3504 8.93071 18.662 8.453C19.0463 7.86378 19.5906 7.42503 20.2271 7.14331C20.2234 7.84034 20.0373 8.513 19.6515 9.10269C19.365 9.53931 18.9843 9.90612 18.5373 10.1761L11.1188 22.6238L10.7424 22.4002Z" fill="white"/>
<path d="M20.2271 22.4002L12.8635 10.0449C12.8102 9.47705 12.6196 8.93071 12.3081 8.453C11.9227 7.86378 11.3795 7.42503 10.7424 7.14331C10.7467 7.84034 10.9299 8.513 11.3176 9.10269C11.6048 9.53885 11.9856 9.90554 12.4323 10.1761L19.8493 22.6242L20.2271 22.4002Z" fill="white"/>
<path d="M15.4848 8.42944C13.591 9.52257 12.272 11.9999 12.272 14.8827C12.272 17.7655 13.5934 20.2415 15.4848 21.3379C17.3738 20.241 18.6976 17.7655 18.6976 14.8827C18.6976 12.0004 17.3762 9.52257 15.4848 8.42944Z" fill="#D9271E"/>
<path d="M12.8645 18.1008C13.2451 17.1361 13.4584 16.0416 13.4584 14.8828C13.4584 13.7231 13.2451 12.63 12.8645 11.6658C12.4872 12.6305 12.2715 13.7236 12.2715 14.8828C12.272 16.042 12.4876 17.1366 12.8645 18.1008ZM18.1051 18.1008C18.4825 17.1361 18.6976 16.0416 18.6976 14.8828C18.6976 13.7231 18.4825 12.63 18.1051 11.6658C17.7245 12.6305 17.5112 13.7236 17.5112 14.8828C17.5112 16.042 17.7245 17.1366 18.1051 18.1008Z" fill="#25333A"/>
<path d="M15.4848 15.9506C15.9824 15.9506 16.3857 15.4725 16.3857 14.8828C16.3857 14.293 15.9824 13.8149 15.4848 13.8149C14.9872 13.8149 14.5839 14.293 14.5839 14.8828C14.5839 15.4725 14.9872 15.9506 15.4848 15.9506Z" fill="white"/>
<path d="M15.2673 16.3318C14.8623 16.9275 14.6054 17.7736 14.6054 18.7144C14.6054 19.6566 14.8623 20.5013 15.2673 21.0966V16.3318ZM15.6709 21.0985C16.0759 20.5027 16.3313 19.6566 16.3313 18.7163C16.3313 17.7741 16.0759 16.929 15.6709 16.3336V21.0985ZM15.2828 8.70239C14.8759 9.29771 14.6223 10.1443 14.6223 11.0822C14.6223 12.0244 14.8759 12.8715 15.2828 13.4672V8.70239ZM15.6868 13.4672C16.0937 12.87 16.3473 12.023 16.3473 11.0822C16.3473 10.1447 16.0937 9.29724 15.6868 8.70239V13.4672Z" fill="white"/>
</g>
<defs>
<clipPath id="clip0_1_427">
<rect width="30" height="30" fill="white" transform="translate(0.0380859)"/>
</clipPath>
</defs>
</svg>
