<svg width="31" height="30" viewBox="0 0 31 30" fill="none" xmlns="http://www.w3.org/2000/svg">
<g clip-path="url(#clip0_1_250)">
<path d="M15.884 5.78624V5.77405L11.5906 7.96874L15.884 5.78624Z" fill="#4189DD"/>
<path d="M0.901489 11.25V12.39L3.0955 11.25H0.901489ZM26.1846 4.6875H15.8841V6.89719L13.7238 7.96875H15.8841V11.25H13.7238L15.8841 12.3727V14.5312H15.7942L9.79739 11.5552V14.5312H6.98816V11.5552L1.01105 14.5312H0.901489V20.1562C0.901489 23.0039 2.48075 25.3125 5.58354 25.3125H26.1846C29.2874 25.3125 30.8666 23.0039 30.8666 20.1562V9.84375C30.8666 6.99609 29.2874 4.6875 26.1846 4.6875ZM1.46895 7.1625C1.34393 7.42216 1.24088 7.69185 1.16088 7.96875H3.0955L1.46895 7.1625Z" fill="#2B3990"/>
<path d="M15.884 4.69219V4.6875H9.79734V7.82766L15.884 4.69219ZM6.98811 7.82766V4.6875H5.58349C4.35679 4.6875 3.37215 5.05219 2.62537 5.66484L6.98811 7.82766Z" fill="#2B3990"/>
<path d="M15.8841 8.4375V7.96875H13.7238L15.8841 6.89719V5.78625L11.5906 7.96875H10.1682L15.8841 5.04703V4.69219L9.79739 7.82766V4.6875H9.32919V8.4375H15.8841ZM9.32919 14.5312H9.79739V11.5552L15.7942 14.5312H15.8841V13.4625L11.5906 11.25H13.0135L15.8841 12.7359V12.3727L13.7238 11.25H15.8841V10.7812H9.32919V14.5312ZM6.98816 11.5552V14.5312H7.45637V10.7812H0.901489V11.25H3.0955L0.901489 12.39V13.4672L5.22864 11.25H6.65199L0.901489 14.1938V14.5312H1.01105L6.98816 11.5552ZM2.62542 5.66719C2.37915 5.86922 2.15956 6.09844 1.96572 6.35109L5.22864 7.97109H3.80577L1.60754 6.89203C1.55866 6.98158 1.51244 7.07255 1.46895 7.16484L3.0955 7.97109H1.16088C1.11593 8.12391 1.07707 8.28016 1.04429 8.43984H7.45637V4.68984H6.98816V7.83L2.62542 5.66719Z" fill="white"/>
<path d="M7.45637 14.5312H9.32919V10.7812H15.8841V8.59359L9.32919 8.90625V4.6875H7.45637V8.90625L1.00824 8.62922C0.937598 9.0302 0.90188 9.43658 0.901489 9.84375L0.901489 10.7812H7.45637V14.5312Z" fill="#FF0000"/>
<path d="M9.32925 8.90622L15.8841 8.59356V8.43747H9.32925V8.90622ZM1.0083 8.62918L7.45643 8.90622V8.43747H1.04435C1.03124 8.50059 1.01923 8.5645 1.0083 8.62918ZM5.22871 7.96872L1.9625 6.35247C1.83188 6.52316 1.71314 6.70264 1.60714 6.88965L3.80583 7.96872H5.22871ZM1.96531 6.34872L1.9625 6.35247L5.22871 7.96872L1.96531 6.34872ZM11.5907 7.96872L15.8841 5.77403V5.047L10.1683 7.96872H11.5907ZM11.5907 11.25L15.8841 13.4447V12.7359L13.0136 11.25H11.5907Z" fill="#FF0000"/>
<path d="M15.8841 13.4625V13.4447L11.5906 11.25L15.8841 13.4625ZM5.22864 11.25L0.901489 13.478V14.1938L6.65199 11.25H5.22864Z" fill="#FF0000"/>
<path d="M0.901489 13.4672V13.478L5.22864 11.25L0.901489 13.4672ZM24.0636 10.0688L23.3707 10.0697L23.1619 9.3844L22.954 10.0697L22.2596 10.0688L22.8224 10.4958L22.6075 11.1816L23.1628 10.7555L23.7167 11.1816L23.5018 10.4958L24.0636 10.0688Z" fill="#FF0000"/>
<path d="M24.4289 9.94683L23.462 9.94823L23.1614 8.96948L22.8637 9.94823L21.8959 9.94683L22.6801 10.544L22.3767 11.5167L23.1638 10.9129L23.9513 11.5167L23.6474 10.544L24.4289 9.94683ZM23.1633 10.7573L22.6085 11.1829L22.8229 10.4971L22.2601 10.0706L22.9535 10.0715L23.1619 9.38854L23.3707 10.0715L24.0637 10.0706L23.5037 10.4971L23.7167 11.1829L23.1633 10.7573Z" fill="white"/>
<path d="M24.1905 19.7484H23.3988L23.1619 18.9717L22.9212 19.7484H22.1346L22.7747 20.2359L22.5326 21.0192L23.1628 20.5331L23.7949 21.0192L23.5533 20.2359L24.1905 19.7484Z" fill="#FF0000"/>
<path d="M24.6072 19.6078L23.5041 19.6102L23.1613 18.4927L22.8209 19.6102L21.7169 19.6078L22.6117 20.2889L22.2661 21.3994L23.1632 20.7094L24.0617 21.3994L23.7152 20.2889L24.6072 19.6078ZM23.1627 20.5331L22.5302 21.0192L22.7741 20.236L22.1327 19.7499L22.923 19.7508L23.1613 18.9717L23.3996 19.7508L24.19 19.7499L23.5513 20.236L23.7948 21.0192L23.1627 20.5331Z" fill="white"/>
<path d="M27.6501 13.3585L26.9577 13.3594L26.7512 12.675L26.5409 13.3594L25.8475 13.3585L26.4094 13.7846L26.194 14.4708L26.7512 14.0452L27.3037 14.4708L27.0916 13.7846L27.6501 13.3585Z" fill="#FF0000"/>
<path d="M28.0158 13.2329L27.0489 13.2352L26.7483 12.256L26.4505 13.2352L25.4823 13.2329L26.2665 13.8305L25.9636 14.8032L26.7502 14.1994L27.5377 14.8032L27.2343 13.8305L28.0158 13.2329ZM26.7497 14.0443L26.1954 14.4699L26.4093 13.7836L25.847 13.3575L26.5404 13.3585L26.7488 12.6755L26.9571 13.3585L27.6501 13.3575L27.0906 13.7836L27.3036 14.4699L26.7497 14.0443Z" fill="white"/>
<path d="M20.553 13.4021L19.8596 13.403L19.6531 12.7219L19.4429 13.403L18.7495 13.4021L19.3114 13.8277L19.0979 14.5149L19.6531 14.0907L20.2056 14.5149L19.9931 13.8277L20.553 13.4021Z" fill="#FF0000"/>
<path d="M20.9177 13.2773L19.9509 13.2796L19.6498 12.3004L19.3525 13.2796L18.3843 13.2773L19.1685 13.8749L18.8656 14.8476L19.6526 14.2439L20.4397 14.8476L20.1363 13.8749L20.9177 13.2773ZM19.6522 14.0892L19.0978 14.5148L19.3118 13.8276L18.749 13.402L19.4424 13.4029L19.6508 12.7204L19.8591 13.4029L20.5521 13.402L19.9926 13.8276L20.2056 14.5148L19.6522 14.0892Z" fill="white"/>
</g>
<defs>
<clipPath id="clip0_1_250">
<rect width="29.9652" height="30" fill="white" transform="translate(0.901489)"/>
</clipPath>
</defs>
</svg>
