<svg xmlns="http://www.w3.org/2000/svg" style="display: none;">

  <symbol id="telegram" viewBox="0 0 24 25" fill="none">
    <path d="M21.6 12.5C21.6 15.0461 20.5886 17.4879 18.7882 19.2882C16.9879 21.0886 14.5461 22.1 12 22.1C9.45392 22.1 7.01212 21.0886 5.21178 19.2882C3.41143 17.4879 2.4 15.0461 2.4 12.5C2.4 9.95392 3.41143 7.51212 5.21178 5.71178C7.01212 3.91143 9.45392 2.9 12 2.9C14.5461 2.9 16.9879 3.91143 18.7882 5.71178C20.5886 7.51212 21.6 9.95392 21.6 12.5ZM12 24.5C18.6276 24.5 24 19.1276 24 12.5C24 5.8724 18.6276 0.5 12 0.5C5.3724 0.5 0 5.8724 0 12.5C0 19.1276 5.3724 24.5 12 24.5ZM12.4296 9.3584C11.2632 9.844 8.9308 10.8492 5.4324 12.374C4.8636 12.5996 4.566 12.8204 4.5396 13.0364C4.494 13.4012 4.9512 13.5452 5.574 13.7408L5.8356 13.8248C6.4476 14.024 7.2732 14.2568 7.7016 14.2664C8.0904 14.2744 8.524 14.1144 9.0024 13.7864C12.2712 11.5784 13.9584 10.4628 14.064 10.4396C14.1396 10.4228 14.2428 10.4012 14.3124 10.4636C14.3832 10.526 14.376 10.6436 14.3688 10.676C14.3232 10.8692 12.528 12.5384 11.5992 13.4012C11.324 13.6604 11.0508 13.9216 10.7796 14.1848C10.2108 14.7332 9.7836 15.1448 10.8036 15.8168C11.8368 16.4984 12.8796 17.1776 13.8876 17.8964C14.3844 18.2516 14.8308 18.5684 15.3828 18.5192C15.7032 18.4892 16.0344 18.188 16.2024 17.288C16.6008 15.164 17.382 10.5584 17.562 8.66C17.5725 8.50253 17.5656 8.34438 17.5416 8.1884C17.5274 8.06286 17.4666 7.94723 17.3712 7.8644C17.2272 7.7468 17.0052 7.7228 16.9068 7.724C16.4556 7.7324 15.7632 7.9724 12.4308 9.3584" fill="currentColor"/>
  </symbol>

  <symbol id="whatsapp" viewBox="0 0 24 25" fill="none">
    <path d="M20.5025 3.99206C19.3967 2.88099 18.0796 2.00002 16.6282 1.4005C15.1767 0.800974 13.6198 0.494884 12.0482 0.500065C5.46332 0.500065 0.0964826 5.84005 0.0964826 12.392C0.0964826 14.492 0.651256 16.532 1.68844 18.332L0 24.5L6.33166 22.844C8.0804 23.792 10.0462 24.296 12.0482 24.296C18.6332 24.296 24 18.956 24 12.404C24 9.22404 22.7578 6.23605 20.5025 3.99206ZM12.0482 22.28C10.2633 22.28 8.51457 21.8 6.98291 20.9L6.6211 20.684L2.85829 21.668L3.8593 18.02L3.61809 17.648C2.62619 16.0725 2.09961 14.2512 2.09849 12.392C2.09849 6.94405 6.5608 2.50406 12.0362 2.50406C14.6894 2.50406 17.1859 3.53606 19.0553 5.40805C19.981 6.32469 20.7147 7.4151 21.2136 8.61604C21.7126 9.81698 21.9669 11.1045 21.9618 12.404C21.9859 17.852 17.5236 22.28 12.0482 22.28ZM17.4995 14.888C17.198 14.744 15.7266 14.024 15.4613 13.916C15.1839 13.82 14.991 13.772 14.7859 14.06C14.5809 14.36 14.0141 15.032 13.8452 15.224C13.6764 15.428 13.4955 15.452 13.194 15.296C12.8925 15.152 11.9276 14.828 10.794 13.82C9.90151 13.028 9.31055 12.056 9.12965 11.756C8.9608 11.456 9.10553 11.3 9.26231 11.144C9.39497 11.012 9.56382 10.796 9.70854 10.628C9.85327 10.46 9.91357 10.328 10.01 10.136C10.1065 9.93204 10.0583 9.76404 9.98593 9.62004C9.91357 9.47604 9.31055 8.01204 9.06935 7.41205C8.82814 6.83605 8.57487 6.90805 8.39397 6.89605H7.81507C7.61005 6.89605 7.29648 6.96805 7.01909 7.26805C6.75377 7.56805 5.98191 8.28804 5.98191 9.75204C5.98191 11.216 7.05528 12.632 7.2 12.824C7.34472 13.028 9.31055 16.028 12.3015 17.312C13.0131 17.624 13.5678 17.804 14.002 17.936C14.7136 18.164 15.3648 18.128 15.8834 18.056C16.4623 17.972 17.6563 17.336 17.8975 16.64C18.1508 15.944 18.1508 15.356 18.0663 15.224C17.9819 15.092 17.801 15.032 17.4995 14.888Z" fill="currentColor"/>
  </symbol>

  <symbol id="instagram" viewBox="0 0 25 25" fill="none">
    <path d="M12.5012 9.37499C11.6724 9.37499 10.8775 9.70423 10.2915 10.2903C9.70544 10.8763 9.3762 11.6712 9.3762 12.5C9.3762 13.3288 9.70544 14.1237 10.2915 14.7097C10.8775 15.2958 11.6724 15.625 12.5012 15.625C13.33 15.625 14.1249 15.2958 14.7109 14.7097C15.297 14.1237 15.6262 13.3288 15.6262 12.5C15.6262 11.6712 15.297 10.8763 14.7109 10.2903C14.1249 9.70423 13.33 9.37499 12.5012 9.37499ZM12.5012 7.29166C13.8825 7.29166 15.2073 7.84039 16.1841 8.81715C17.1608 9.7939 17.7095 11.1187 17.7095 12.5C17.7095 13.8813 17.1608 15.2061 16.1841 16.1828C15.2073 17.1596 13.8825 17.7083 12.5012 17.7083C11.1199 17.7083 9.79511 17.1596 8.81836 16.1828C7.8416 15.2061 7.29287 13.8813 7.29287 12.5C7.29287 11.1187 7.8416 9.7939 8.81836 8.81715C9.79511 7.84039 11.1199 7.29166 12.5012 7.29166ZM19.272 7.03124C19.272 7.37658 19.1349 7.70777 18.8907 7.95196C18.6465 8.19614 18.3153 8.33333 17.97 8.33333C17.6246 8.33333 17.2934 8.19614 17.0492 7.95196C16.8051 7.70777 16.6679 7.37658 16.6679 7.03124C16.6679 6.68591 16.8051 6.35472 17.0492 6.11053C17.2934 5.86634 17.6246 5.72916 17.97 5.72916C18.3153 5.72916 18.6465 5.86634 18.8907 6.11053C19.1349 6.35472 19.272 6.68591 19.272 7.03124ZM12.5012 4.16666C9.92412 4.16666 9.50329 4.17395 8.30433 4.22708C7.48766 4.26562 6.93975 4.37499 6.43141 4.57291C6.00624 4.72955 5.62175 4.97982 5.30641 5.3052C4.98066 5.62043 4.73002 6.00493 4.57308 6.4302C4.37516 6.94062 4.26579 7.48749 4.22829 8.30312C4.17412 9.45312 4.16683 9.8552 4.16683 12.5C4.16683 15.0781 4.17412 15.4979 4.22725 16.6969C4.26579 17.5125 4.37516 18.0615 4.57204 18.5687C4.74912 19.0219 4.95745 19.3479 5.30329 19.6937C5.65433 20.0437 5.98037 20.2531 6.42829 20.426C6.94287 20.625 7.49079 20.7354 8.30329 20.7729C9.45329 20.8271 9.85537 20.8333 12.5002 20.8333C15.0783 20.8333 15.4981 20.826 16.697 20.7729C17.5116 20.7344 18.0595 20.625 18.5689 20.4281C18.9941 20.2715 19.3786 20.0212 19.6939 19.6958C20.045 19.3458 20.2543 19.0198 20.4272 18.5708C20.6252 18.0583 20.7356 17.5104 20.7731 16.6958C20.8272 15.5469 20.8335 15.1437 20.8335 12.5C20.8335 9.92291 20.8262 9.50208 20.7731 8.30312C20.7345 7.48854 20.6241 6.93854 20.4272 6.4302C20.2706 6.00503 20.0203 5.62054 19.695 5.3052C19.3797 4.97945 18.9952 4.72881 18.57 4.57187C18.0595 4.37395 17.5116 4.26458 16.697 4.22708C15.5481 4.17291 15.146 4.16666 12.5002 4.16666M12.5002 2.08333C15.3304 2.08333 15.6835 2.09374 16.795 2.14583C17.9033 2.19791 18.6595 2.37187 19.3231 2.6302C20.0106 2.89479 20.5897 3.25312 21.1689 3.83124C21.6988 4.3518 22.1087 4.98174 22.37 5.67708C22.6272 6.34062 22.8022 7.09687 22.8543 8.20624C22.9033 9.31666 22.9168 9.66979 22.9168 12.5C22.9168 15.3302 22.9064 15.6833 22.8543 16.7937C22.8022 17.9042 22.6272 18.6583 22.37 19.3229C22.1087 20.0183 21.6988 20.6482 21.1689 21.1687C20.6484 21.6986 20.0184 22.1085 19.3231 22.3698C18.6595 22.6271 17.9033 22.8021 16.795 22.8542C15.6835 22.9031 15.3304 22.9167 12.5002 22.9167C9.66995 22.9167 9.31683 22.9062 8.20537 22.8542C7.09704 22.8021 6.34183 22.6271 5.67725 22.3698C4.9819 22.1085 4.35197 21.6986 3.83141 21.1687C3.30152 20.6482 2.89164 20.0183 2.63037 19.3229C2.37204 18.6594 2.19808 17.9031 2.146 16.7937C2.096 15.6833 2.0835 15.3302 2.0835 12.5C2.0835 9.66979 2.09391 9.31666 2.146 8.20624C2.19808 7.09583 2.37204 6.34166 2.63037 5.67708C2.89164 4.98174 3.30152 4.3518 3.83141 3.83124C4.35197 3.30136 4.9819 2.89147 5.67725 2.6302C6.34079 2.37187 7.096 2.19791 8.20537 2.14583C9.31787 2.09687 9.671 2.08333 12.5012 2.08333" fill="currentColor"/>
  </symbol>

  <symbol id="logo" viewBox="0 0 150 98" fill="none">
    <path d="M31.4451 55.3038C31.6875 56.3696 31.5 57.6681 30.8959 58.4251C30.2917 59.1822 29.2822 59.2287 28.7443 58.4227C28.2159 57.6264 28.3618 56.1466 29.055 55.6223C29.0663 55.615 29.0853 55.5439 29.0853 55.5439C28.0474 54.8824 26.8902 55.9678 26.5284 57.3986C26.1837 58.7632 26.4621 60.292 27.0209 61.4166C29.0644 65.5179 34.0114 64.3615 35.8921 60.3239C37.8087 56.2079 36.339 51.0702 33.2538 48.8922C30.6989 47.0914 27.5379 46.942 24.7178 47.3854C20.6894 48.02 16.1648 50.0265 12.1023 52.3785C12.7784 48.8505 14.4754 39.7659 14.7709 37.8378C15.0985 39.7267 16.4508 46.719 16.8049 48.4634C19.0474 47.4638 20.9527 46.8342 22.5152 46.4397L19.0682 30.1129C16.25 32.7491 12.7557 32.83 10.0341 33.1436V33.4106C10.0341 33.4106 11.1781 33.5331 11.8561 34.6969C12.4394 35.6989 12.3447 37.0268 12.1553 38.144L9.02654 54.4586C7.96972 55.2156 6.99813 55.7767 5.76896 55.8281C4.27654 55.8918 3.87502 53.726 4.77275 52.7411C5.39207 52.0625 6.41669 52.1752 7.07199 53.1454C7.64586 51.548 5.38071 48.9559 3.34472 49.8844C1.30874 50.813 0.369341 54.3875 1.05495 56.5533C1.68752 58.5525 3.1004 60.1009 5.39775 59.9049C6.13639 59.8412 7.34283 59.2924 8.2576 58.4668L7.42427 62.8106C6.81252 66.0005 5.72161 67.9409 4.89396 68.6759C4.06631 69.4134 3.32199 69.776 3.32199 69.776V70.3713H12.3788V69.8078C10.0076 68.8401 9.50002 65.9466 10.1951 62.3133C10.2576 61.9899 10.769 59.2973 11.3656 56.1883C11.8485 55.9163 12.5057 55.6076 12.5057 55.6076C13.6724 55.0588 14.9546 54.51 16.2784 53.9612C19.0682 52.844 21.9053 52.0233 24.7216 51.6215C26.9716 51.3005 30.6705 51.9228 31.4413 55.3063H31.4451V55.3038Z" fill="currentColor"/>
    <path d="M44.6666 55.3357V55.2402C44.6666 55.1373 44.6609 55.0368 44.659 54.9339V54.9021C44.6439 54.4439 44.6155 53.9809 44.5738 53.5105C44.5643 53.3978 44.553 53.29 44.5416 53.1797C44.1136 48.9902 42.7329 45.7464 41.7727 44.3622C40.284 42.2233 38.4905 41.0743 35.5814 41.1355C32.8352 41.1943 27.678 41.1551 26.5624 41.1404V41.4075C26.5624 41.4075 28.945 42.2356 28.9924 44.5655C28.9961 44.8007 29.0018 45.2613 29.0056 45.891C30.8162 46.1164 32.4147 46.7142 33.7745 47.6721C33.9999 47.8314 34.2177 48.0053 34.428 48.1891V43.7644C34.428 42.9681 35.0037 42.2968 35.8882 42.9191C37.6022 44.7223 39.4374 48.4635 39.5567 55.3039C39.5567 55.4533 39.5605 55.6003 39.5605 55.7473C39.5605 55.8943 39.5605 56.0413 39.5567 56.1908C39.4393 63.0312 37.6022 66.7723 35.8882 68.5755C35.0037 69.1978 34.428 68.529 34.428 67.7303V64.0577C33.3465 64.8858 32.0946 65.3587 30.8238 65.3587C30.1855 65.3587 29.5757 65.2337 29.0075 65.001C29.0037 65.7776 28.998 66.3411 28.9942 66.6131C28.981 67.3309 28.8465 67.9508 28.5189 68.4898C26.4014 66.5812 26.1079 63.1831 25.2083 59.1455L23.9412 53.1405C22.0549 53.4713 20.0965 54.0029 18.0908 54.7208C18.6552 57.4917 19.1192 59.7727 19.1192 59.7727C19.2954 60.6424 19.4677 61.4901 19.6344 62.3035C20.3711 65.9246 19.8219 68.8328 17.4507 69.8005V70.364C17.4507 70.364 34.2878 70.3346 35.5852 70.364C38.4961 70.4253 40.2878 69.2762 41.7764 67.1374C42.7386 65.7531 44.1174 62.5093 44.5454 58.3198C44.5567 58.2096 44.5662 58.0993 44.5776 57.9915C44.6192 57.5187 44.6477 57.0556 44.6628 56.5975V56.5656C44.6666 56.4627 44.6685 56.3598 44.6704 56.2594V56.1638C44.6704 56.083 44.6704 55.9997 44.6742 55.9188V55.5807C44.6742 55.4999 44.6742 55.419 44.6704 55.3357H44.6666Z" fill="currentColor"/>
    <path d="M98.2216 37.3551C87.6913 28.8977 82.1932 41.133 88.8674 43.7374C87.3977 41.2825 90.0739 35.8337 96.2633 40.2927V59.7481C96.2841 64.4766 94.3977 64.2659 94.1705 64.2806V64.5501C97.7633 65.8903 100.809 67.985 103.739 70.1459V69.7662C103.119 69.215 101.559 67.8405 101.646 64.2537V43.7839C106.11 45.543 111 44.7468 111.316 38.4135C107.841 44.2396 102.326 40.6504 98.2235 37.3551H98.2216Z" fill="currentColor"/>
    <path d="M136.483 71.1896C136.358 70.93 136.239 70.6629 136.129 70.3934C135.905 69.8593 135.714 69.3276 135.566 68.8033C135.186 67.5661 134.911 66.346 134.667 65.4199C133.261 60.1156 131.328 57.9939 129.686 57.1462C131.013 56.7934 134.203 55.3161 134.203 49.2646C134.203 41.6206 129.057 41.1698 127.267 41.1698L114.523 41.1355V41.4026C115.265 41.6598 116.292 42.532 116.292 44.198C116.292 46.1678 116.305 60.025 116.305 60.025C116.305 65.3194 115.422 67.2672 112.549 67.2672C108.936 67.2672 109.135 62.5044 109.135 59.9123V44.9305C108.142 45.5504 106.939 45.8812 105.563 45.8812C105.053 45.8812 104.529 45.8346 103.994 45.7488C104.004 50.7248 104.006 60.6742 104.006 60.6816C104.006 62.5705 103.93 64.4987 104.413 66.3068C104.767 67.6323 105.383 68.7568 106.381 69.602L106.466 69.678C109.08 72.0422 114.032 71.4837 115.019 70.8614C115.148 70.8075 115.26 70.7462 115.366 70.6849C115.447 70.6409 115.523 70.5967 115.591 70.5502C116.691 69.798 117.504 68.5608 117.953 67.0663C118.449 65.4174 118.508 61.4435 118.506 59.6942C118.506 59.6942 118.508 45.6753 118.511 44.198C118.511 43.4703 118.818 42.8284 119.218 42.3384H119.235C120.379 42.679 120.498 44.8938 120.498 46.5965L120.519 64.0871C120.519 65.1308 120.523 66.3362 120.527 67.4142L120.523 67.3922C120.493 71.3391 120.627 75.656 118.909 77.3269C118.496 77.7287 117.894 78.1158 117.159 77.8928C115.082 77.2607 115.042 73.6617 116.945 72.8409C113.479 71.4273 111.332 75.0729 112.689 77.7458C112.229 77.5572 111.75 77.3416 111.246 77.0844C105 73.4216 97.68 65.4174 89.1024 64.8C82.9262 64.3541 77.0721 68.1345 77.8618 75.7883C78.6062 83.0697 88.2482 83.2338 86.1743 74.3894C86.144 77.322 82.0531 78.0986 82.4073 73.7817C82.8637 68.2031 92.3789 68.6392 95.9471 70.903C89.4565 72.1427 93.8883 83.5695 98.4205 77.8659C94.0872 76.5405 97.4812 70.9789 102.186 73.5931C106.475 75.9769 108.224 77.1995 110.754 78.7994C113.748 80.6932 125.722 85.5271 125.722 69.3987V69.357L125.714 58.1948C126.032 58.1728 126.661 58.3492 127.474 59.6942C127.487 59.7163 127.5 59.7408 127.513 59.7653C128.082 60.9584 128.392 62.4456 128.731 63.722C128.974 64.6383 129.225 65.5498 129.481 66.4587C129.493 66.5028 129.502 66.5493 129.513 66.591C129.525 66.6375 129.546 66.6841 129.559 66.7331C129.701 67.2353 129.841 67.7352 129.987 68.235C130.354 69.4894 132.379 77.1187 139.739 75.9916C140.945 75.8079 142.871 74.7225 143.576 73.2207C142.54 73.892 141.278 74.2031 140.254 74.2031C138.489 74.2031 137.316 72.8826 136.493 71.1921H136.483V71.1896ZM129.451 50.127C129.451 56.0928 126.741 56.595 126.188 56.1785C125.769 55.8649 125.707 55.0393 125.707 54.0274V45.2441C125.707 44.2323 125.769 43.4066 126.188 43.093C126.741 42.6765 129.451 43.1812 129.451 49.1445V50.127Z" fill="currentColor"/>
    <path d="M85.3237 27.3543C85.6078 27.4743 85.9998 27.4204 86.1096 27.075C86.5509 25.2203 86.4922 23.0643 86.5509 20.9892C86.5509 20.7932 86.6456 20.4183 86.7384 20.5849C87.4165 22.2558 88.104 23.7478 88.8464 25.3011C89.2252 26.0876 89.5604 26.8422 90.2649 26.7908C90.9581 26.6707 91.5225 25.9847 91.8369 25.2595C92.6267 22.3587 92.121 18.9728 90.9884 16.5522C90.5793 15.7486 90.1059 14.7 89.3521 14.4575C89.0093 14.3987 89.0471 15.0038 89.1286 15.3444C89.5396 17.5592 90.1684 19.698 90.3274 22.0353C90.3578 22.518 90.4828 23.1623 90.2309 23.569C88.8786 21.4351 88.0869 18.8944 86.4543 17.0373C86.1968 16.7654 85.8805 17.0422 85.7309 17.4048C84.9752 19.3771 84.6835 21.5527 84.568 23.8532C84.5055 25.0807 84.3142 26.7148 85.3218 27.3591V27.3543H85.3237Z" fill="currentColor"/>
    <path d="M75.2538 20.3032C75.341 20.6976 75.6932 21.1117 76.0095 21.2293C78.1156 21.8344 80.8239 21.1117 82.6156 22.9247C82.8372 23.2848 82.6383 23.6695 82.3656 23.8508C80.7008 24.7377 78.9319 25.3673 76.9792 24.843C76.716 24.7548 76.3239 24.3996 76.4508 24.0517C77.2349 22.5204 78.5588 24.0125 79.5341 24.2134C80.0209 24.3481 81.108 24.1742 81.6421 23.449C81.8107 23.0398 81.2197 22.7875 80.8239 22.6429C79.4376 22.1603 77.4887 21.5943 76.1989 22.7238C75.8315 23.0398 75.5379 24.0125 75.7879 24.7793C76.858 26.9966 78.911 27.7414 80.8239 27.3592C82.1251 27.0995 83.6875 26.5139 84.0019 24.6201C84.1516 23.422 84.0966 22.1211 83.3088 21.2734C81.4849 19.7029 78.8675 20.5482 76.858 19.502C76.7936 19.382 76.8353 19.3403 76.9527 19.2619C79.0929 18.4142 81.6118 18.7376 83.8144 18.0541C84.1307 17.9291 84.43 17.2774 84.2879 16.9663C83.9716 16.5596 83.5626 16.4934 83.1232 16.4003C80.4565 15.8221 77.4546 15.9985 75.5379 18.3775C75.2008 18.8405 75.2216 19.7078 75.2538 20.313V20.3032Z" fill="currentColor"/>
    <path d="M92.6894 25.5437C92.9261 26.6413 93.339 27.8247 93.9508 28.0035C95.9015 28.4862 97.5076 27.0774 98.983 25.6638C99.2386 25.3306 98.75 24.3212 98.5758 24.2918C97.2538 24.0884 96.0246 24.8161 94.7046 24.7769C94.8314 23.9708 94.9905 23.2799 95.3068 22.5939C96.3845 22.3906 97.9905 22.6797 98.6364 22.0329C98.8258 21.7536 98.7481 20.8691 98.5758 20.7442C97.7557 20.3816 96.6837 20.5188 95.8617 20.5775C95.9924 20.0386 96.1307 19.4359 96.2784 18.8895C96.9697 18.9704 97.6629 18.914 98.2917 18.8454C98.964 18.7768 99.7727 18.9263 100.242 18.2427C100.381 17.8973 99.8504 16.9614 99.5511 16.6723C99.2519 16.3807 99.1231 16.2558 98.9527 16.2264C97.7008 16.001 95.0474 16.6723 93.1932 17.0324C92.9413 17.0716 93.0038 17.3558 93.0663 17.5984C93.2235 18.5661 94.0417 18.4044 94.5758 18.7695C94.3561 19.4138 94.233 20.0974 93.9148 20.7025C93.6345 20.825 93.1591 20.7417 93.1288 21.3077C93.1004 21.6507 93.3163 21.8761 93.2955 22.3293C93.0019 23.2873 92.4943 24.2942 92.6875 25.5413H92.6894V25.5437Z" fill="currentColor"/>
    <path d="M73.2708 16.3513C72.9204 16.3121 72.8011 16.9932 72.7367 17.3191C72.4526 19.7372 72.3352 22.4396 72.3901 25.0611C72.4128 26.0386 72.2973 27.3567 73.2405 27.5993C73.6174 27.7193 74.32 27.5993 74.375 27.2759C74.5625 24.2134 74.3087 20.7858 74.1231 17.6425C74.1041 17.3191 73.7746 16.513 73.2727 16.3513H73.2708Z" fill="currentColor"/>
    <path d="M47.3978 7.68565C47.555 7.5656 47.8372 7.5656 47.8694 7.28385C47.6497 6.6787 47.0209 6.88205 46.6744 6.55865C46.8637 6.3161 47.1478 6.39695 47.3675 6.23525C53.5986 5.06905 59.735 7.53375 64.6156 12.0417C67.1971 14.4256 69.6535 17.9658 68.8031 22.2362C67.6895 26.3644 63.3259 26.999 59.9262 26.9549C59.1706 26.9426 58.5209 26.7907 57.8486 26.4698C57.8713 23.8948 57.8316 20.6976 57.7956 19.0536C59.1971 18.9483 61.9073 19.4971 63.7028 20.504C64.0494 20.7931 63.0418 21.6702 62.663 22.1186C62.4547 22.4346 63.2217 22.736 63.7331 22.6821C64.5191 22.5179 65.1819 21.7143 65.4963 20.7858C65.716 19.9013 65.3846 19.208 64.9584 18.6102C63.0399 16.513 60.3997 16.5228 57.8183 16.4444C57.7899 15.2806 57.7709 13.5436 57.5986 12.4974C57.4262 11.4562 57.0285 10.9931 56.4319 10.8314C55.9584 11.5174 55.8827 12.4068 55.8012 13.3304C55.7009 14.4574 55.6081 15.6824 55.5191 16.7163C55.5191 16.7163 54.1137 17.0691 53.2842 17.319C52.4547 17.5714 49.1971 18.9091 49.4755 21.0283C49.8448 22.9124 52.1819 25.1835 53.788 26.5114C54.3107 26.9426 54.8429 27.3224 55.4262 27.6776C55.4925 28.6552 55.6137 29.6107 56.1175 30.38C56.2804 30.5711 56.8486 30.4951 57.2842 30.38C57.8183 30.0982 57.8334 29.3608 57.8827 28.8071C58.4452 28.9345 59.1137 29.1354 60.0891 29.2922C63.9925 29.9145 68.7709 28.4861 70.913 23.4881C72.7066 18.691 69.591 14.0409 67.2539 11.4488C66.9262 11.0887 65.7653 9.87595 65.1516 9.3786C60.0418 5.2675 53.4433 2.3667 47.0209 4.7432C46.2028 5.1058 45.824 6.19605 45.699 7.16135C46.11 7.8057 46.7387 7.68565 47.3997 7.68565H47.3978ZM55.36 25.502C53.4641 24.7768 51.4584 23.4073 50.1346 21.1508C49.824 20.5212 50.985 20.1414 51.5512 19.9381C52.8012 19.4922 54.1327 19.2937 55.4869 19.2129C55.3732 21.4497 55.3486 23.934 55.36 25.502Z" fill="currentColor"/>
    <path d="M71.2878 15.1043C71.8844 15.5061 72.0151 14.5996 72.3257 14.2565C74.087 15.1434 75.7878 14.0973 77.1098 12.767C78.1495 11.64 79.409 10.2655 78.9052 8.4133C78.6192 7.6881 78.0226 7.2422 77.426 7.2422C76.8276 6.23525 75.8844 5.9143 74.9374 6.076C73.017 6.51945 70.909 8.0115 70.2821 10.5497C70.1249 11.5591 70.3124 12.4852 70.8806 13.1712C70.8162 13.7935 70.7537 14.6608 71.2878 15.1067V15.1043ZM74.106 10.7849C75.0264 9.63585 76.2745 8.2026 77.4545 8.6926C77.5984 8.75385 77.6798 8.82735 77.7707 9.1385C77.9791 9.8441 77.267 10.9466 76.5908 11.466C75.551 12.1912 74.4052 12.7498 73.0851 12.5513C73.2556 11.929 73.5889 11.4268 74.106 10.7873V10.7849ZM72.1382 9.4178C72.5662 8.8788 73.176 8.3692 73.8048 8.41085C72.9204 9.2561 72.1723 10.3145 71.57 11.4758C71.2537 10.7506 71.7594 10.0229 72.1363 9.4178H72.1382Z" fill="currentColor"/>
    <path d="M100.716 25.6221C99.8352 28.6037 99.0795 31.6687 98.9204 35.0129C98.9545 35.8606 99.4886 36.5858 100.057 37.0317C100.244 37.1493 100.697 37.4727 100.748 37.191C101.189 33.9692 101.818 30.8626 102.697 27.8393C103.53 27.9765 104.042 27.9496 105.151 27.3199C107.042 26.1513 108.837 23.6106 108.934 20.8299C108.96 19.3378 108.523 17.9242 107.517 17.0789C107.191 16.8192 106.856 16.9442 106.54 17.1206C104.587 18.5734 102.233 21.9348 101.691 23.4048C101.602 20.5481 103.487 18.7327 103.644 16.1136C103.648 15.4595 102.96 16.1651 102.733 16.5546C101.095 19.0561 99.3636 22.3611 100.716 25.6245V25.6221ZM107.294 19.0928C107.545 18.7817 107.704 20.3423 107.642 20.9891C107.42 22.8805 105.598 24.4853 104.682 24.816C104.375 24.9263 104.239 24.9263 103.898 24.9361C104.417 23.3901 105.816 20.7441 107.295 19.0904H107.294V19.0928Z" fill="currentColor"/>
    <path d="M69.1381 68.4897C68.7101 68.2374 68.6457 67.5808 68.6457 66.7747V56.7395C68.6457 56.0976 68.729 55.8404 68.9753 55.7081C69.4298 55.4606 71.9317 56.3769 72.8105 61.3676H72.9525V47.9783H72.8105C71.9317 52.9714 69.4317 53.8853 68.9753 53.6378C68.729 53.5031 68.6457 53.2458 68.6457 52.6064V44.737C68.6457 43.931 68.7139 43.2866 69.1381 43.022C69.873 42.5663 73.7366 43.196 75.7972 50.0388H75.9393V41.1306L56.4355 41.1649V41.4565C58.2196 42.1841 58.6022 44.4944 58.0775 47.2262C57.9601 47.8338 54.8578 64.19 54.6362 65.6404C54.39 64.217 51.1097 47.8387 50.9847 47.2262C50.4317 44.5018 50.8427 42.1816 52.6268 41.454V41.16H40.9961V41.4515C43.2953 42.1792 44.7707 45.2907 45.3181 47.7676L50.087 70.3591C52.4696 70.3517 55.8844 70.3591 55.8844 70.3591L60.3029 47.2262C60.9715 44.2225 61.4355 42.9656 62.2385 42.238C62.9014 42.8774 63.3029 43.7937 63.3313 45.3862L63.3351 54.7134V56.6048L63.3313 65.9319C63.2878 68.4309 62.3256 69.2664 60.8787 69.9744V70.19H60.8806V70.3591H76.1665V59.4076H76.0245C73.9772 66.6645 70.0984 69.0532 69.1362 68.4848V68.4897H69.1381Z" fill="currentColor"/>
    <path d="M78.5303 68.0634C78.5833 67.985 78.6345 67.9042 78.6894 67.8283C79.6401 66.5004 80.9091 65.4395 82.3939 64.6873L82.3883 64.3444C80.5947 64.7339 80.911 60.4243 80.9129 58.8L80.892 50.4896C80.892 50.4896 84.0151 57.6485 86.5985 63.4599C87.4261 63.3692 88.2803 63.3497 89.1534 63.4109C90.5947 63.5138 91.9981 63.7857 93.3636 64.2635C93.3617 57.5946 93.3579 44.764 93.3579 44.0559C93.3579 42.5026 93.7614 41.8607 94.6098 41.4123V41.1649L89.8939 41.1477L89.8901 41.4148C90.6326 41.672 91.2519 42.3997 91.2519 43.8329C91.2557 45.8027 91.2595 55.7252 91.2595 55.7252V58.0919L83.4754 41.1306H76.4507L76.4451 41.3756C77.0454 41.5177 78.5322 41.9048 78.536 45.5234C78.5322 49.8428 78.5303 68.061 78.5303 68.061V68.0634Z" fill="currentColor"/>
    <path d="M148.491 59.4125C146.443 66.6694 142.564 69.0581 141.602 68.4897C141.174 68.2374 141.11 67.5808 141.11 66.7747V56.7395C141.11 56.0976 141.193 55.8404 141.439 55.7081C141.894 55.4607 144.396 56.3769 145.275 61.3676H145.417V47.9783H145.275C144.396 52.9714 141.896 53.8853 141.439 53.6378C141.193 53.5031 141.11 53.2458 141.11 52.6064V44.737C141.11 43.931 141.178 43.2866 141.602 43.022C142.337 42.5663 146.201 43.196 148.261 50.0388H148.403V41.1306H133.345V41.3462C134.826 42.0689 135.801 44.1808 135.801 46.817V65.4395C135.839 65.589 135.879 65.7433 135.919 65.905C136.102 66.6375 136.311 67.4681 136.563 68.2864L136.574 68.3231C136.699 68.7641 136.866 69.237 137.07 69.727C137.163 69.9524 137.256 70.1607 137.35 70.3615H148.633V59.4101H148.491V59.4125Z" fill="currentColor"/>
  </symbol>

  <symbol id="decor-circle" viewBox="0 0 198 170" fill="none">
    <path d="M198 28.4511C197.422 28.1243 196.854 27.8066 196.286 27.4616C195.885 27.3618 195.438 27.2619 194.916 27.1621C193.63 27.3527 192.14 26.9442 190.472 26.4813C189.643 26.2452 188.758 26.0001 187.835 25.8186C186.913 25.6461 185.944 25.5463 184.947 25.5826C187.109 25.3284 180.382 24.5387 183.876 24.4388C182.366 23.7126 175.547 23.6581 172.593 22.6415C173.106 22.587 173.012 22.4327 173.739 22.4781C169.453 22.1422 170.907 21.6157 167.767 21.1164L167.786 21.7337C166.537 21.7337 166.258 21.2435 165.168 21.1527C165.997 21.3797 167.739 21.9697 166.752 22.0514C165.289 21.9334 164.05 21.9153 162.494 21.6338C162.512 21.4069 163.621 21.4886 164.366 21.5521C164.366 21.5521 161.012 20.8986 160.835 20.5718C162.075 20.5899 163.63 20.8713 164.748 20.7261C160.37 19.7639 164.432 20.4719 162.382 19.6186C162.615 20.018 161.637 19.9363 160.314 19.6822C159.009 19.4099 157.351 18.9923 156.158 18.8198C155.981 18.493 157.826 19.0831 158.45 19.0014C157.397 18.4567 156.466 18.1118 155.553 17.8667C155.106 17.7487 154.621 17.6488 154.137 17.558C153.652 17.4673 153.168 17.4037 152.665 17.3311C152.357 17.2948 152.059 17.2585 151.742 17.2312C149.413 15.334 146.925 13.9179 144.661 12.7379C144 12.3748 143.339 12.048 142.714 11.7121C142.09 11.3853 141.503 11.0404 140.935 10.7227C139.807 10.0872 138.857 9.38825 138.084 8.6439C134.823 7.56367 130.882 6.57422 125.823 5.09458C125.758 5.31244 124.901 5.11273 124.099 4.93118C123.298 4.76779 122.553 4.65886 122.721 4.99473C125.05 5.92064 127.332 6.41082 129.494 6.92824C130.575 7.20057 131.609 7.49105 132.606 7.836C133.584 8.20817 134.516 8.65297 135.354 9.21578C137.497 9.90567 136.966 9.25209 138 9.42456C138.922 9.80582 139.798 10.2415 140.46 10.5956C141.121 10.9496 141.559 11.2673 141.615 11.4579C139.463 10.5774 139.053 10.7136 138.531 10.7408C138 10.759 137.348 10.7045 134.674 9.58796C134.944 9.8966 136.155 10.5048 137.553 11.1311C138.922 11.8029 140.469 12.4928 141.373 13.0283C140.721 12.9376 141.168 13.4459 142.276 14.2084C140.795 13.8544 137.711 12.7106 136.006 12.3566C136.649 12.402 135.689 11.8483 136.193 11.93C136.193 11.93 135.829 11.821 135.298 11.6576C135.028 11.5759 134.721 11.4852 134.376 11.3762C134.04 11.2855 133.677 11.1856 133.314 11.0858C132.587 10.8951 131.879 10.6863 131.329 10.5502C130.78 10.4231 130.416 10.3323 130.416 10.3323C128.804 9.44272 128.45 8.95253 129.466 9.05239C127.929 8.44419 125.767 7.87231 124.006 7.41843C122.245 6.96455 120.885 6.61961 120.969 6.26558C118.873 5.80263 119.18 6.00233 120.047 6.31097C120.913 6.63776 122.32 7.15518 122.469 7.29134L122.106 7.2278C122.106 7.2278 123.205 7.49105 124.286 7.80876C124.826 7.96308 125.366 8.1174 125.776 8.22633C125.981 8.2808 126.149 8.33526 126.261 8.37157C126.382 8.40788 126.447 8.42603 126.447 8.42603C126.503 8.66205 126.233 8.65297 125.776 8.55312C125.32 8.45327 124.677 8.23541 123.997 8.00847C123.326 7.77245 122.599 7.55459 121.994 7.42751C121.388 7.30042 120.904 7.24596 120.68 7.3912C120.158 7.99939 118.668 7.52736 116.888 6.85562C116.003 6.53791 115.043 6.15665 114.102 5.85709C113.161 5.56661 112.248 5.32152 111.456 5.2489C111.456 5.2489 112.398 5.14904 113.348 5.04919C113.823 4.99473 114.298 4.94934 114.661 4.91303C115.016 4.8858 115.258 4.86764 115.258 4.86764C115.258 4.86764 115.062 4.84041 114.764 4.8041C114.466 4.76779 114.065 4.73148 113.665 4.68609C112.863 4.60439 112.071 4.5227 112.071 4.5227C113.953 4.45007 114.075 3.71479 116.963 3.87819C115.873 3.64217 114.671 3.36077 113.422 3.13383C112.183 2.87058 110.897 2.65272 109.658 2.44394C108.419 2.22608 107.227 2.08992 106.165 1.95375C105.102 1.83574 104.161 1.78128 103.444 1.76312C102.363 1.30017 101.879 0.955224 102.41 0.628433C97.8634 0.982457 95.3851 -0.0523823 91.4534 0.00208292C87.3261 0.474115 95.618 0.465037 92.6087 1.03692C91.9845 0.918914 91.1087 0.918914 90.2515 0.973379C89.5807 1.02784 88.9193 1.11862 88.3975 1.18216C88.6863 1.14585 89.0311 1.1277 89.441 1.11862C89.7578 1.11862 90.1025 1.10046 90.4752 1.10954C90.8478 1.10954 91.2392 1.1277 91.6398 1.13677C93.2702 1.17308 95.1056 1.33648 96.6056 1.44541C94.3602 1.4091 94.6118 1.92652 93.9876 2.1353C93.9876 2.1353 94.9193 2.17161 95.8509 2.20792C96.3168 2.22608 96.7826 2.24423 97.1274 2.27147C97.4721 2.28962 97.705 2.30778 97.705 2.30778C97.4441 2.90689 93.1398 2.26239 91.4255 2.65272C92.5062 2.06268 91.9006 2.05361 93 1.46357C92.1894 1.53619 91.2857 1.59065 90.3354 1.64512C89.3851 1.70866 88.3882 1.76312 87.41 1.79943C86.4317 1.8539 85.4721 1.89929 84.5776 1.91744C83.6832 1.9356 82.8634 1.96283 82.1739 1.9356C80.5342 1.86298 83.5062 1.51803 84.3633 1.28202C83.5807 0.964301 81.1584 1.80851 80.4783 1.41818C80.9348 0.991534 82.4627 1.18216 83.5807 0.964301C83.5807 0.964301 82.9845 1.00969 82.0994 1.08231C81.205 1.13677 80.0218 1.26386 78.8292 1.39095C77.6367 1.4908 76.4721 1.69958 75.587 1.81759C74.7019 1.94468 74.1149 2.02637 74.1149 2.02637C74.0776 1.79943 76.4162 1.34556 77.9162 1.20032C76.4627 1.29109 75.2236 1.46357 73.9379 1.76312C72.6615 2.08084 71.3292 2.48025 69.764 3.24276C68.1522 3.4697 66.4099 3.69664 65.1894 3.79649C63.9783 3.9145 63.2981 3.95081 63.7919 3.6331C62.3758 4.15959 63.4006 4.10513 63.4752 4.32299C61.3416 4.82225 60.205 5.30336 59.3012 5.74816C58.3975 6.18388 57.736 6.64684 56.4876 7.04625L58.5 6.85562C54.354 7.69983 57.7919 7.82692 54.1491 8.62574C54.5776 8.02662 54.177 7.60906 53.413 7.34581C52.9658 7.93585 50.618 8.40788 49.0901 8.95253C50.1894 9.02515 45.9876 10.5229 48.5963 10.0418C47.7485 10.4322 47.0217 10.7862 46.3509 11.0585C45.6801 11.3399 45.0745 11.5669 44.4969 11.7847C43.9193 12.0026 43.3696 12.2204 42.8292 12.4746C42.2795 12.7288 41.7578 13.0647 41.1988 13.4731C42.8199 12.8831 38.4969 15.2251 39.9876 14.8983C39.1863 15.2796 38.4224 15.5882 37.7515 15.8515C37.0901 16.1238 36.5124 16.3326 36.0466 16.4597C35.1242 16.7138 34.6677 16.6503 34.9845 16.2236C36.1118 15.6971 37.9658 14.98 37.677 14.7168C37.677 14.7168 37.5839 14.7622 37.4255 14.8348C37.2671 14.9165 37.0435 15.0345 36.764 15.1797C36.2236 15.4611 35.4969 15.8424 34.7702 16.2146C34.0435 16.5867 33.3261 16.968 32.7764 17.2585C32.2453 17.558 31.882 17.7577 31.882 17.7577C30.354 18.3296 28.4627 19.2374 27.9689 18.9197C27.2143 19.6913 25.8354 20.3902 24.5031 21.062C24.1677 21.2344 23.8416 21.3978 23.5248 21.5612C23.2174 21.7337 22.9286 21.9153 22.6584 22.0877C22.118 22.4327 21.6894 22.7867 21.4472 23.1498C22.2671 22.3782 23.1242 21.8789 23.8789 21.5521C24.6429 21.2254 25.2857 21.0438 25.677 20.8623L24.8571 21.4523C24.9876 21.3797 25.1273 21.3071 25.323 21.2072C25.323 21.2072 24.8385 21.7519 24.3447 22.2965C24.1025 22.5598 23.8696 22.8502 23.6832 23.059C23.5062 23.2678 23.3851 23.413 23.3851 23.413C24.6242 22.8502 24.6522 22.6778 24.7733 22.3782C24.8944 22.0877 25.118 21.6883 26.7671 20.7261C28.4162 20.245 26.9627 21.4705 25.5186 22.6324C24.7919 23.2133 24.0838 23.8034 23.7484 24.1665C23.4224 24.5205 23.4596 24.6385 24.2609 24.3026C26.795 23.0772 25.9472 22.6687 27.7919 21.2344L27.2609 21.5249C27.2609 21.5249 27.531 21.3434 27.941 21.062C28.146 20.9167 28.3789 20.7624 28.6397 20.5899C28.9006 20.4265 29.1801 20.245 29.4503 20.0634C30.559 19.3554 31.677 18.6473 31.677 18.6473C32.0311 18.7744 30.7547 19.7457 30.7547 19.7457C33.5311 18.1935 35.2547 17.5036 36.9969 16.7592C37.4348 16.5777 37.8727 16.378 38.3385 16.1964C38.8043 16.0058 39.2981 15.8151 39.8385 15.6064C40.3696 15.3885 40.9472 15.1434 41.5901 14.8802C41.9068 14.744 42.2422 14.5988 42.5963 14.4535C42.9503 14.2992 43.323 14.1449 43.7236 13.9906C43.472 14.036 42.941 13.9906 42.8292 13.7727C42.7081 13.5458 42.9969 13.1464 44.3851 12.5018C46.3416 11.467 46.7795 11.821 48.5031 11.2038C47.5155 11.6849 46.8075 12.5291 45.3168 12.7833L45.6708 13.3007C44.5621 13.9543 43.9099 14.4172 43.4441 14.7803C42.9876 15.1706 42.7267 15.452 42.4099 15.7425C42.0838 16.0421 41.7112 16.3416 41.0311 16.7592C40.6957 16.968 40.2764 17.204 39.7453 17.4945C39.4845 17.6307 39.1957 17.785 38.8789 17.9574C38.5621 18.1299 38.2267 18.3205 37.8447 18.5293C37.8074 18.8017 36.7081 19.546 35.1988 20.4175C34.4348 20.835 33.6056 21.3615 32.7391 21.8426C31.8727 22.3328 30.9783 22.7958 30.1491 23.2224L31.9379 22.705C30.4472 23.9486 30.2236 23.9123 29.8602 23.9305C29.4969 23.9395 29.0124 24.0122 27.0559 25.5281C25.9472 25.6824 24.4938 26.1091 23.5435 26.1998C22.5932 26.2997 22.1553 26.0909 23.1522 25.0742C22.3789 25.5009 21.7453 25.8821 21.1863 26.2362C20.6366 26.5993 20.1801 26.9533 19.7236 27.2982C18.8199 27.9972 17.9534 28.6599 16.6491 29.5585C14.6553 30.1123 17.0404 28.4238 16.3509 28.088C14.4689 29.4587 12.2236 31.3377 13.8634 30.666L10.0994 32.9717C9.92236 32.9263 11.2081 32.0185 11.7205 31.6827C10.2298 32.545 7.75156 34.7146 7.1087 35.4771C7.37889 35.2411 8.21739 34.5149 8.67391 34.3242C7.29503 35.5225 4.81676 37.692 4.73291 37.9734C6.70806 36.1488 7.35093 36.6027 9.37267 34.642C9.28882 34.9234 9.1118 35.4862 7.86336 36.2668C9.98758 35.2411 11.823 33.8431 12.8851 33.6616C11.0869 34.4967 10.3696 35.6223 10.0714 35.9128C11.5714 34.996 14.3385 32.9172 15.1863 32.1002C15.5124 32.3363 16.8913 31.3559 18.0093 30.5661C19.0341 29.849 19.8447 29.2953 19.4161 29.9216C19.9472 29.3679 21.6801 28.2241 22.7422 27.7521C22.8075 28.0607 20.1056 30.0669 19.118 31.1562C13.7609 35.232 18.8944 30.6388 17.4596 31.3287C17.4596 31.3287 16.3975 32.0639 15.3447 32.7992C14.2919 33.5436 13.2391 34.297 13.2391 34.297C13.7329 34.0882 11.8603 35.9037 14.5901 33.943C14.087 34.5784 13.2205 35.4226 12.177 36.2759C11.1335 37.1383 9.93167 37.9825 8.72981 38.6179C8.35714 39.1535 9.93168 37.9825 10.4255 37.6557C10.0621 38.1822 7.87266 40.7057 11.4037 38.3456C10.3975 39.0173 12.8665 36.8659 10.9379 37.928C12.2702 36.8569 16.2019 34.5058 14.9627 35.8765C15.3634 35.5588 15.8478 35.1685 16.3789 34.7418C16.9099 34.3242 17.469 33.8794 18.028 33.4346C18.587 32.9989 19.1367 32.5632 19.6304 32.1729C20.1242 31.8007 20.5714 31.4739 20.9068 31.2197C21.5031 31.247 19.7888 32.1093 19.1926 32.7266C19.1926 32.7266 19.4907 32.5087 19.9379 32.191C20.3851 31.8733 20.9814 31.4557 21.5776 31.0382C22.1739 30.6206 22.7702 30.194 23.2174 29.8853C23.6739 29.5767 23.9721 29.377 23.9721 29.377C23.9721 29.377 23.5621 29.5222 23.1615 29.6584C22.7609 29.8127 22.3509 29.9579 22.3509 29.9579C23.2826 29.4224 24.1211 28.9231 24.8665 28.3875C25.6118 27.861 26.2826 27.3345 26.9348 26.808C28.2391 25.7914 29.4224 24.7474 30.8478 23.7671C30.7919 24.1302 30.1584 24.7021 29.3106 25.3375C28.4627 25.982 27.4006 26.69 26.5248 27.4162C28.7609 26.9079 27.5497 26.3723 30.6894 24.6476C31.1553 24.4933 31.3416 24.5659 31.2298 24.8382L33.4565 23.0227C34.0714 22.7504 33.9689 22.9138 33.7453 23.0953C35.5342 21.7609 35.4317 21.6066 35.5062 21.3888C35.5901 21.1709 35.8789 20.8895 38.7578 19.2918C35.087 20.8259 35.9255 21.1255 32.9907 22.6868C32.0404 22.9592 32.7764 22.3419 33.8478 21.5521C34.118 21.3615 34.4068 21.1527 34.6956 20.953C34.9845 20.7624 35.2733 20.5718 35.5528 20.3902C36.0932 20.0362 36.5497 19.7276 36.736 19.5642C39.6894 18.2116 40.4348 18.9015 43.9193 16.7592C41.441 18.2207 44.0497 17.3129 40.3696 19.0195C38.4503 20.2359 41.5807 18.7563 42.1584 18.8743C43.0807 18.3296 41.236 18.6019 43.9845 17.44L43.9099 17.5671C43.9099 17.5671 44.1708 17.4037 44.5621 17.1586C44.9627 16.9317 45.4938 16.623 46.0155 16.3144C47.087 15.6971 48.1491 15.0889 48.1491 15.0889C48.6988 14.9165 49.2298 14.6805 49.7981 14.4898C50.3665 14.2901 50.9255 14.0723 51.4938 13.8362C52.6304 13.3824 53.7671 12.874 54.8758 12.4201C55.9938 12.0026 57.0745 11.5941 58.0807 11.2945C58.5838 11.1402 59.059 11.0041 59.5155 10.9042C59.9721 10.7953 60.4006 10.7317 60.8013 10.7136C60.8013 10.7136 60.5776 10.6137 60.354 10.5048C60.1398 10.3959 59.9161 10.3051 59.9161 10.3051C61.295 9.8966 62.9814 9.44272 64.5559 8.98884C64.9472 8.87991 65.3385 8.77098 65.7112 8.66205C66.0839 8.55312 66.4565 8.4805 66.8013 8.38972C67.5 8.21725 68.1149 8.06293 68.6087 7.92677C68.4131 8.14463 67.854 8.37157 67.0901 8.60758C66.7081 8.72559 66.2795 8.83452 65.823 8.97976C65.3665 9.12501 64.8913 9.2884 64.4068 9.44272C65.0404 9.29748 65.646 9.12501 66.2609 8.97976C66.8665 8.85268 67.472 8.70744 68.059 8.57128C69.2329 8.28987 70.3603 7.99939 71.4317 7.69075C71.9628 7.52736 72.4938 7.40027 73.0062 7.27319C73.5186 7.1461 74.0217 7.01902 74.5062 6.88285C75.4752 6.61961 76.3882 6.35636 77.2267 6.09311C74.646 6.0568 74.2826 6.15665 71.823 6.24743C73.4162 5.54846 74.441 5.51215 75.587 5.52122C76.7329 5.54846 77.9907 5.5303 80.1336 5.0855C80.3292 5.67554 78.8851 5.75724 80.0311 6.21112C80.4689 6.0568 80.9814 5.91156 81.5311 5.79355C82.0901 5.68462 82.6957 5.58477 83.3106 5.49399C84.5311 5.28521 85.7981 5.15812 86.8044 4.89487C87.3727 5.14904 87.177 5.43953 86.2919 5.70278C85.854 5.83894 85.2391 5.96602 84.4565 6.08403C83.6832 6.22927 82.7422 6.35636 81.6429 6.47436C80.795 6.44713 79.9286 6.51068 79.0714 6.61961C78.6429 6.67407 78.2143 6.74669 77.795 6.83747C77.3758 6.92824 76.9565 7.01902 76.5373 7.10979C74.8789 7.48197 73.295 7.82692 71.8882 7.82692C71.8882 7.82692 72 7.82692 72.1584 7.82692C72.3168 7.836 72.5311 7.84507 72.7547 7.86323C73.1832 7.88138 73.6211 7.90862 73.6211 7.90862C72.8012 8.08109 72.0559 8.22633 71.3758 8.40788C70.6864 8.57128 70.0528 8.72559 69.4286 8.87083C68.8043 9.01608 68.1988 9.17039 67.5745 9.33379C66.9503 9.50626 66.3074 9.66058 65.646 9.93291L65.7391 9.8149L64.5186 10.768L66.0093 10.3777C65.059 10.9859 62.1429 12.3294 61.2391 12.5835C65.7764 11.3127 65.8416 10.2234 67.9379 9.25209C68.9907 9.03423 69.9037 8.91622 70.705 8.8436C71.5155 8.78006 72.2236 8.72559 72.8944 8.73467C74.2267 8.73467 75.3634 8.68928 76.7236 8.1991C77.0031 8.44419 79.3882 8.36249 77.5528 8.93438C75.2609 9.46995 73.5559 9.3701 73.3975 9.80582C75.8385 9.39733 74.9534 9.78766 78.6522 9.11593C79.2764 8.48958 82.0062 7.61813 84.6801 6.96455C87.5031 6.43805 91.2112 6.32912 93.4751 6.47436C90.6149 6.54699 87.8012 7.21872 88.5373 7.57275C90.1677 6.91009 94.09 7.87231 93.2422 7.11887C94.0714 7.13703 95.0404 7.15518 96.028 7.17334C97.0155 7.20965 98.031 7.28227 98.9534 7.35489C100.789 7.53644 102.252 7.79969 102.401 8.14463C99.2981 8.15371 96.3075 7.66352 93.6708 7.79969C94.3975 7.81784 95.1056 7.99939 94.677 8.14463C94.677 8.14463 94.4348 8.14463 94.0714 8.12648C93.7081 8.10832 93.2236 8.10832 92.7391 8.10832C91.7702 8.10832 90.8012 8.10832 90.8012 8.10832C92.2733 8.24448 92.8602 8.36249 93.5404 8.43511C94.2298 8.53496 95.0124 8.55312 96.8758 8.5622C96.6429 8.49866 96.177 8.37157 96.5311 8.35341C97.4628 8.37157 98.6367 8.43511 99.5684 8.47142L99.6522 9.0887C100.351 9.06146 101.199 9.10685 102.168 9.19763C103.127 9.31563 104.208 9.4518 105.354 9.62427C106.5 9.79674 107.711 9.98737 108.95 10.178C109.575 10.2779 110.208 10.3505 110.832 10.4322C111.466 10.5229 112.099 10.5956 112.733 10.65L112.258 10.6954C113.245 10.8951 114.019 11.0041 114.689 11.0494C115.36 11.0948 115.947 11.0494 116.534 11.0404C117.708 11.0131 118.966 10.9314 121.118 11.4489C119.804 11.3944 120.307 11.7938 120.447 12.1206C121.547 12.2386 122.339 12.5291 123.112 12.874C123.494 13.0465 123.876 13.2281 124.295 13.4187C124.705 13.6184 125.143 13.8272 125.646 14.036C123.345 12.9103 127.491 13.9633 125.795 13.2008C125.814 13.0465 126.102 13.0193 126.55 13.0828C126.773 13.11 127.044 13.1645 127.342 13.2281C127.63 13.3007 127.957 13.4005 128.292 13.5004C128.963 13.7182 129.708 13.9543 130.407 14.2357C130.779 14.3809 131.134 14.5261 131.469 14.6623C130.901 14.6623 130.416 14.6805 130.146 14.7803C129.969 14.7258 129.792 14.6714 129.615 14.6169C128.208 14.2266 127.043 13.9089 128.199 14.7077C127.407 14.5806 126.643 14.4808 126.643 14.4808C125.199 14.6986 125.394 15.0345 125.236 15.3159C125.087 15.6064 124.593 15.8242 121.789 15.9332C119.227 15.8515 119.339 15.561 119.711 15.1979C120.084 14.8439 120.727 14.4626 119.217 14.3264L117.978 14.8075C117.978 14.8075 117.345 14.7531 116.711 14.7168L115.444 14.6441L115.826 14.5806C114.326 14.7985 111.578 14.8892 111.55 14.6623C111.783 14.4626 113.413 14.3355 113.637 14.1449C113.022 14.2901 112.09 14.3446 110.991 14.3627C109.891 14.39 108.643 14.4081 107.385 14.4354C106.127 14.4807 104.87 14.5715 103.779 14.7168C102.68 14.8802 101.748 15.1434 101.134 15.5156C99.6336 15.4974 96.6056 15.9604 96.9317 15.5247C96.3075 15.8878 94.6397 16.1056 92.8975 16.3416C92.0217 16.4687 91.1366 16.5867 90.3354 16.7229C89.5435 16.8591 88.8447 17.0315 88.3696 17.204C88.5932 16.9771 86.6646 17.0588 85.2112 17.5308C87.2422 17.2857 86.0404 17.7577 84.7547 18.3296C83.8416 18.3296 82.1739 18.7109 80.6273 19.0286C79.0808 19.3645 77.6553 19.664 77.1988 19.4552C74.5994 20.5264 75.7081 20.6807 75.2515 21.2798C74.3385 21.3252 72.5311 21.8063 71.0311 22.1331C69.5404 22.4962 68.3664 22.7141 68.7298 22.2148C70.2205 21.7972 73.5466 20.944 72.7826 20.6807C69.9037 21.2798 71.618 21.2163 69.354 22.0333C69.4845 21.8517 67.6397 22.1331 68.0124 21.7882C66.6801 22.3237 64.7795 22.9682 62.8137 23.6127C65.9348 22.7685 61.0808 24.811 62.9907 24.3843C62.9907 24.3843 63.6615 23.9849 64.3323 23.5946C64.6677 23.3949 65.0031 23.1952 65.264 23.0681C65.5155 22.9229 65.6832 22.8321 65.6832 22.8321C69.1863 21.5612 66.559 22.941 67.9472 22.6415C66.4286 23.2224 65.3665 23.6491 64.5745 24.0666C63.7733 24.4751 63.2143 24.8019 62.6739 25.1469C62.1335 25.4827 61.6211 25.8458 60.8851 26.2725C60.5217 26.4903 60.1025 26.7082 59.6087 26.9896C59.1149 27.2619 58.5466 27.5796 57.8572 27.9246C57.3075 28.0971 56.5528 28.3785 55.854 28.6417C55.1553 28.905 54.5217 29.15 54.2422 29.2953C56.0497 28.3512 55.4162 27.9427 54.2795 28.3512C52.91 29.377 51.5218 29.9761 50.1801 30.5298C49.5 30.7931 48.8385 31.0473 48.177 31.3014C47.7578 31.4739 47.3571 31.6645 46.9565 31.8461C48.2143 31.3468 47.469 32.1638 46.882 32.6631C45.6708 33.4619 44.9627 33.9611 44.4969 34.2244C44.0404 34.4876 43.8633 34.533 43.7515 34.5149C43.5373 34.4695 43.6118 34.1336 42.4565 34.6783C38.6646 37.102 35.5248 39.0627 32.6646 41.0689C29.8137 43.075 27.2143 45.0993 24.6801 47.7499C24.6801 47.7499 25.4255 47.2779 26.1801 46.8059C26.5528 46.5698 26.9255 46.3429 27.205 46.1704C27.4845 45.9889 27.6708 45.8799 27.6708 45.8799L28.1553 44.7089C29.3385 44.01 29.4503 44.3368 29.1615 44.9903C28.882 45.653 28.1832 46.6152 27.7547 47.2688C27.5404 47.3233 26.6366 48.113 25.9099 48.7121C25.2019 49.3203 24.6894 49.7561 25.2112 49.0298C25.2112 49.0298 24.4751 49.8196 23.7484 50.6093C23.3758 50.9997 23.0311 51.4172 22.7702 51.7259C22.5093 52.0345 22.3323 52.2342 22.3323 52.2342C22.6491 52.089 23.2733 51.4989 23.6646 51.154C24.0745 50.8181 24.2329 50.7092 23.618 51.508C23.059 51.9528 21.9782 52.9423 21.2702 53.5595C20.5714 54.1859 20.2081 54.4219 21.0093 53.2691C20.236 54.1133 19.3789 55.1027 18.8385 55.8834C18.2981 56.6731 18.0186 57.2178 18.3074 57.127C15.9876 59.9774 17.9534 56.3826 18.8571 54.9666C16.9286 57.1815 16.7795 56.6005 17.2267 55.8017C17.2267 55.8017 17.059 56.0014 16.8168 56.301C16.5838 56.6096 16.2391 56.9908 15.9317 57.4084C15.3168 58.2345 14.6925 59.0605 14.6925 59.0605C15.1118 58.2526 14.9255 58.1165 15.3447 57.3086C14.4224 58.3252 13.7702 59.3056 13.1926 60.2678C12.6056 61.221 12 62.1015 11.1708 62.9639L11.0217 64.0986C10.4534 64.852 10.0062 65.5328 9.60559 66.1319C9.20497 66.731 8.85093 67.2394 8.56211 67.7023C7.98448 68.6464 7.54658 69.3635 7.12732 70.0716C6.34472 71.5058 5.59006 72.9038 4.2205 76.1807L5.02175 75.2185C4.63977 76.4985 4.39751 77.379 4.12732 78.0598C3.86645 78.7406 3.57763 79.2127 3.30744 79.7664C3.03726 80.311 2.72981 80.9192 2.38509 81.8179C2.30124 82.0448 2.19875 82.2899 2.1149 82.5532C2.03105 82.8255 1.94721 83.116 1.86335 83.4337C1.68634 84.0691 1.50933 84.8226 1.32299 85.7031C1.17393 86.7107 1.03416 87.6184 0.931677 88.4173C0.810559 89.2161 0.791913 89.906 0.773279 90.4597C0.754646 91.5581 0.857133 92.0937 1.18322 91.8667C1.13664 92.4386 1.11801 92.9016 1.07142 93.2919C1.02484 93.6822 0.959619 93.9909 0.894402 94.2541C0.745334 94.7897 0.568325 95.171 0.40994 95.6793C0.503108 96.5871 0.661499 98.0122 0.736033 99.5463C0.80125 100.318 0.847839 101.108 0.857155 101.888C0.857155 102.279 0.857137 102.669 0.838504 103.041C0.838504 103.413 0.819881 103.786 0.791931 104.14C0.726714 103.668 0.652177 103.214 0.61491 102.769C0.577643 102.333 0.540381 101.906 0.503114 101.48C0.475163 101.053 0.43789 100.636 0.40994 100.209C0.38199 99.7823 0.354051 99.3557 0.363368 98.9018C0.027964 99.1469 0.00931677 100.699 0 102.551C0 103.477 0.0838464 104.475 0.111797 105.419C0.13043 105.901 0.139764 106.364 0.158398 106.799C0.186348 107.235 0.195644 107.643 0.195644 108.016C0.307445 108.515 0.475166 109.314 0.680134 110.267C0.913054 111.238 1.19254 112.391 1.53726 113.553C2.20807 115.886 3.1118 118.328 3.8385 120.034C3.84782 119.172 4.08074 118.854 4.45341 119.136C4.81677 119.417 5.36646 120.27 6.0559 121.75C5.81366 121.559 6.02795 122.63 6.42857 124.019C6.63353 124.709 6.85714 125.481 7.09937 126.216C7.33229 126.951 7.55591 127.65 7.72361 128.186C7.35094 127.732 7.63045 128.976 7.78884 129.802C7.87269 130.21 7.91926 130.51 7.80746 130.437C7.69566 130.365 7.39752 129.92 6.90373 128.812C6.70808 128.131 6.6615 127.596 6.58696 127.015C6.50311 126.434 6.32608 125.826 5.93478 124.954C5.97205 126.143 6.62422 129.166 7.79813 132.244C7.73291 132.207 7.61179 132.089 7.47204 131.908C7.33229 131.726 7.17391 131.481 6.98758 131.2C6.62422 130.619 6.21427 129.865 5.8975 129.085C6.40061 129.874 6.29814 129.339 6.38199 129.157C5.69255 127.832 5.37578 127.242 5.2174 127.115C5.0497 126.988 5.06831 127.324 5.14285 127.805C5.29192 128.767 5.73912 130.328 5.34782 130.001C5.53415 130.365 5.76708 130.837 6 131.309C6.24224 131.781 6.45653 132.262 6.68014 132.652C7.02486 133.269 7.26709 133.632 7.22982 133.333C7.63976 134.912 8.89753 136.9 10.4068 138.816L11.0124 139.587C11.236 139.841 11.4503 140.096 11.6646 140.341C11.8789 140.595 12.0932 140.84 12.2981 141.085C12.5031 141.321 12.7081 141.521 12.9037 141.739C13.6863 142.583 14.3665 143.4 14.823 144.162C14.9907 144.208 13.854 142.528 15.6335 144.162C16.9472 145.37 17.4876 145.996 17.8137 146.468C17.9814 146.704 18.0932 146.904 18.2143 147.113C18.3447 147.321 18.4845 147.548 18.736 147.812C19.2298 148.066 20.5342 149.019 21.6615 149.881C21.941 150.099 22.2205 150.299 22.472 150.471C22.7236 150.653 22.9472 150.807 23.1335 150.934C23.4969 151.197 23.6832 151.352 23.5528 151.297C24.5683 151.915 24.1957 151.37 23.9348 150.88C23.6739 150.39 23.5248 149.963 24.941 150.78C25.472 150.989 25.9938 151.279 26.5248 151.615C27.0652 151.924 27.6149 152.287 28.1646 152.659C28.7143 153.04 29.264 153.431 29.8137 153.812C30.3634 154.193 30.9596 154.502 31.5279 154.801C32.7578 155.745 32.0497 155.428 30.8944 154.801C30.6056 154.638 30.2795 154.465 29.9627 154.293C29.646 154.102 29.3199 153.903 29.0217 153.712C28.4161 153.34 27.8758 153.022 27.5683 152.886C27.5683 152.886 28.0342 153.176 28.7422 153.603C29.0963 153.812 29.5062 154.066 29.9441 154.329C30.3913 154.574 30.8758 154.838 31.3603 155.092C32.3199 155.609 33.2795 156.136 34.0062 156.508C34.7422 156.862 35.236 157.089 35.236 157.089C36.3075 157.815 35.9814 157.806 35.1056 157.461C34.6677 157.289 34.0901 157.043 33.4845 156.735C32.8882 156.417 32.264 156.054 31.7143 155.718C32.0683 155.972 32.441 156.236 32.8323 156.481C33.2236 156.735 33.6149 156.989 34.0248 157.198C34.8447 157.633 35.6832 158.033 36.4565 158.378C36.8478 158.55 37.2205 158.705 37.5745 158.841C37.9286 158.977 38.264 159.068 38.5714 159.158C39.177 159.331 39.6522 159.422 39.941 159.422C40.4255 159.667 40.8634 159.885 41.264 160.066C41.6646 160.266 42.0466 160.429 42.4286 160.584C43.1832 160.901 43.9193 161.21 44.8323 161.682C43.8354 161.428 43.2764 161.51 42.5869 161.519C42.2422 161.519 41.8696 161.519 41.3851 161.419C40.91 161.319 40.323 161.146 39.5777 160.838C34.7422 158.587 41.6087 161.056 37.5466 159.077L36.9689 159.349C36.1677 158.777 35.3851 158.405 34.5559 158.051C34.1366 157.879 33.7267 157.706 33.2888 157.515C32.8603 157.316 32.4224 157.098 31.9658 156.844C31.0155 156.154 32.2826 156.816 32.9907 157.143C29.6739 155.319 27.2981 153.494 24.6242 152.278C24.8665 152.486 25.118 152.704 25.3789 152.922C25.6397 153.14 25.9286 153.331 26.2174 153.54C26.795 153.948 27.4006 154.366 28.0155 154.774C29.236 155.627 30.5777 156.326 31.8075 157.043C33.0373 157.77 34.2391 158.351 35.2174 158.886C36.1956 159.413 36.9596 159.903 37.4068 160.257C37.4068 160.257 38.0031 160.484 38.9068 160.82C39.354 160.983 39.8758 161.183 40.4348 161.392C40.7143 161.491 41.0031 161.6 41.3012 161.709C41.5994 161.809 41.8975 161.9 42.205 162C43.4161 162.381 44.618 162.771 45.5218 163.062C46.4348 163.325 47.0497 163.479 47.0497 163.479C47.087 163.37 46.3137 162.944 45.8851 162.617C45.6708 162.445 45.5497 162.299 45.6428 162.245C45.7453 162.19 46.0621 162.227 46.7609 162.372C47.2081 162.835 48.1025 163.37 49.3509 163.97C49.9752 164.278 50.6925 164.551 51.4938 164.832C52.2857 165.113 53.1615 165.413 54.0838 165.712C52.8727 164.768 60.2515 166.666 58.4814 165.694C56.6553 165.576 55.9099 164.841 55.6863 164.732C59.3012 165.585 56.3199 164.287 58.3043 164.732C59.1149 164.968 59.7298 165.095 60.1863 165.213C60.6429 165.322 60.941 165.413 61.1273 165.476C61.5093 165.604 61.4627 165.649 61.4162 165.694C61.3603 165.74 61.3044 165.794 61.6677 165.921C61.854 165.994 62.1336 166.076 62.5808 166.194C63.028 166.321 63.6335 166.448 64.4534 166.602C64.09 166.62 63.587 166.638 62.9814 166.638C62.3851 166.62 61.6677 166.602 60.8944 166.557C60.1118 166.511 59.2547 166.475 58.3603 166.366C57.4752 166.257 56.5528 166.112 55.6304 165.958C55.7143 166.13 56.6273 166.348 57.6988 166.602C57.9689 166.666 58.2484 166.738 58.5186 166.802C58.7981 166.865 59.0777 166.929 59.3478 166.992C59.795 167.101 60.2143 167.219 60.559 167.346C58.9006 166.675 62.3292 167.119 60.6429 166.629C61.3137 166.729 62.0031 166.82 62.7019 166.929C63.4006 167.029 64.1273 167.065 64.8541 167.138C65.5808 167.201 66.3168 167.256 67.0714 167.319C67.8261 167.374 68.5901 167.383 69.3634 167.419C70.1367 167.446 70.9099 167.474 71.7019 167.501H74.0963C75.7174 167.528 77.2733 167.474 78.8665 167.474C78.354 167.927 75.7081 168.091 73.2578 168.109C72.6522 168.118 72.0745 168.145 71.5528 168.163C71.0404 168.163 70.5932 168.182 70.2484 168.227C69.5683 168.3 69.2981 168.472 69.7919 168.808C70.6118 168.853 71.2267 168.881 71.7298 168.853C72.2329 168.826 72.6335 168.772 72.9969 168.735C73.7422 168.654 74.3944 168.59 75.6988 168.699C77.8137 169.325 83.1056 168.962 87.3913 168.826L85.4907 168.563C86.3013 168.427 87.4565 168.418 88.6491 168.399C89.8416 168.381 91.0714 168.399 92.0217 168.399L91.5373 168.545C91.5373 168.545 92.0031 168.481 92.4596 168.427C92.9255 168.354 93.3913 168.281 93.3913 168.281C93.6801 168.29 93.7547 168.318 93.7453 168.354C95.7857 167.982 101.04 167.9 104.944 167.31C104.916 167.083 103.947 167.165 102.745 167.328C102.149 167.419 101.488 167.51 100.863 167.601C100.239 167.673 99.6428 167.737 99.177 167.755C98.9161 167.728 97.8727 167.728 97.118 167.682C96.3634 167.637 95.8882 167.528 96.7547 167.319C97.9659 167.228 99.0932 167.11 100.174 166.974C101.255 166.847 102.298 166.657 103.36 166.493C103.891 166.411 104.422 166.321 104.972 166.23C105.522 166.139 106.071 166.039 106.658 165.939C107.236 165.84 107.832 165.749 108.457 165.658C109.081 165.576 109.733 165.476 110.413 165.377C110.413 165.377 109.975 165.404 109.537 165.431C109.099 165.458 108.661 165.476 108.661 165.476C109.509 165.222 110.525 165.004 111.652 164.841C112.22 164.759 112.807 164.678 113.422 164.587C114.037 164.496 114.671 164.387 115.314 164.269C120.084 163.752 111.969 165.513 114.876 165.277C113.981 165.658 112.705 165.83 111.596 166.003C110.488 166.175 109.565 166.348 109.351 166.666C109.351 166.666 109.547 166.684 109.835 166.702C110.124 166.72 110.506 166.747 110.898 166.765C111.671 166.811 112.453 166.856 112.453 166.856C113.683 166.493 115.006 166.303 116.245 166.166C116.87 166.103 117.466 166.039 118.016 165.985C118.565 165.921 119.068 165.83 119.506 165.712C119.506 165.712 119.022 165.74 118.537 165.767C118.295 165.785 118.053 165.794 117.866 165.794C117.689 165.794 117.568 165.803 117.568 165.803C117.848 165.268 119.655 165.259 120.55 165.15L119.143 164.696C117.773 164.932 116.646 165.231 115.602 165.513C114.559 165.794 113.609 166.021 112.575 165.948C113.786 165.722 114.606 165.486 115.258 165.277C115.91 165.068 116.385 164.895 116.898 164.714C117.922 164.369 119.05 163.951 121.947 163.352C122.273 163.579 120.857 163.688 120.307 164.024C121.323 163.915 122.311 163.616 123.457 163.234C124.025 163.053 124.63 162.862 125.301 162.671C125.637 162.581 125.991 162.499 126.354 162.408C126.717 162.317 127.099 162.227 127.5 162.145C127.062 162.308 126.55 162.508 126.075 162.69C125.59 162.862 125.143 163.044 124.817 163.189C124.174 163.498 124.062 163.697 125.292 163.597C125.292 163.597 125.683 163.361 126.084 163.125C126.279 163.007 126.475 162.889 126.624 162.79C126.773 162.699 126.866 162.635 126.866 162.635C128.357 162.317 127.817 162.69 128.422 162.535C129.484 162.299 129.317 162.199 129.317 162.054C129.317 161.982 129.345 161.9 129.587 161.791C129.829 161.673 130.286 161.546 131.106 161.319C131.627 161.274 132.745 161.047 132.307 161.319C134.189 160.738 134.627 160.556 135.019 160.32C135.41 160.093 135.755 159.848 137.441 159.104C134.329 160.211 133.947 159.458 137.106 158.233C137.674 158.051 138.205 157.851 138.717 157.633C139.23 157.416 139.724 157.216 140.199 157.016C140.674 156.807 141.13 156.617 141.568 156.426C142.016 156.245 142.435 156.018 142.854 155.827C143.683 155.437 144.475 155.083 145.276 154.783C146.059 154.447 146.832 154.157 147.652 153.939C147.652 153.939 148.09 153.612 148.519 153.285C148.742 153.131 148.947 152.949 149.106 152.822C149.264 152.695 149.366 152.605 149.366 152.605C148.901 153.176 149.581 152.831 150.55 152.269C151.034 151.978 151.593 151.642 152.115 151.334C152.618 150.998 153.093 150.689 153.429 150.508C153.801 150.607 152.292 151.606 150.671 152.55C149.087 153.549 147.382 154.484 147.606 154.892C150.494 153.503 149.404 154.384 148.593 155.083C148.975 154.874 149.283 154.701 149.506 154.547C149.739 154.393 149.898 154.266 150.019 154.148C150.252 153.93 150.289 153.803 150.27 153.694C150.233 153.476 149.972 153.358 150.54 152.813C150.568 152.868 150.904 152.713 151.37 152.477C151.835 152.232 152.432 151.933 152.953 151.615C154.006 151.007 154.863 150.562 154.146 151.315C154.77 150.925 155.255 150.589 155.637 150.281C156.028 149.972 156.307 149.672 156.587 149.4C157.137 148.855 157.602 148.374 158.516 147.793C158.394 148.166 158.264 148.619 158.609 148.728C158.721 148.456 161.068 146.931 161.506 146.613C161.031 146.84 162 145.615 160.081 147.303C160.137 147.122 160.463 146.795 160.91 146.414C161.348 146.023 161.935 145.597 162.466 145.134C163.537 144.235 164.543 143.4 164.357 143.309C164.646 143.427 165.671 142.51 166.882 141.367C167.189 141.076 167.506 140.786 167.814 140.468C168.121 140.15 168.429 139.832 168.736 139.524C169.342 138.907 169.938 138.335 170.441 137.89C169.901 137.581 169.118 138.525 168.307 139.569C167.506 140.622 166.575 141.666 165.904 141.621C166.481 140.949 167.32 140.114 168.233 139.106C168.708 138.616 169.211 138.09 169.733 137.536C170.245 136.964 170.767 136.374 171.298 135.775C171.568 135.475 171.839 135.167 172.109 134.867C172.379 134.558 172.63 134.232 172.891 133.914C173.404 133.269 173.916 132.625 174.419 131.98C174.904 131.327 175.351 130.664 175.78 130.02C176.208 129.375 176.627 128.758 176.953 128.131C179.907 124.237 177.345 128.386 178.295 127.814C175.854 131.654 174.811 132.316 172.453 135.457C173.208 134.685 174.009 133.723 174.866 132.707C175.304 132.207 175.696 131.654 176.106 131.109C176.506 130.564 176.916 130.011 177.317 129.457C178.071 128.34 178.77 127.215 179.385 126.216C179.963 125.19 180.429 124.274 180.764 123.556C181.071 123.057 181.351 122.621 181.593 122.222C181.854 121.823 182.096 121.478 182.339 121.151C182.814 120.506 183.307 119.989 183.736 119.408C184.621 118.255 185.59 116.975 186.578 114.279C185.897 114.824 185.87 114.669 185.012 116.231C185.478 114.787 186.382 113.244 186.95 111.71C187.081 110.694 185.748 113.943 186.363 111.765C186.755 110.975 187.491 109.241 187.612 109.668L187.509 110.031C187.891 108.733 188.171 107.861 188.46 107.217C188.739 106.581 189 106.173 189.205 105.764C189.419 105.365 189.615 104.984 189.783 104.403C189.876 104.121 189.96 103.776 190.025 103.368C190.062 103.159 190.099 102.941 190.137 102.696C190.165 102.442 190.183 102.179 190.202 101.879C190.062 102.043 189.997 102.388 189.904 102.814C189.801 103.241 189.689 103.767 189.466 104.303C189.196 104.684 189.158 104.149 189.242 103.268C189.289 102.832 189.345 102.297 189.41 101.734C189.475 101.18 189.55 100.608 189.643 100.082C189.736 100.3 189.848 99.8459 189.997 99.156C190.137 98.4661 190.258 97.5402 190.435 96.8049C190.752 96.342 190.621 97.2769 190.425 98.4207C190.342 98.9926 190.183 99.6099 190.09 100.136C189.997 100.663 189.932 101.099 189.96 101.298C189.96 101.298 190.211 100.291 190.463 99.2831C190.593 98.7747 190.668 98.2664 190.761 97.8851C190.835 97.5039 190.882 97.2497 190.882 97.2497L190.658 98.0939C190.658 98.0939 190.752 96.9683 190.845 95.8336C190.901 95.2708 190.901 94.708 190.919 94.2814C190.929 93.8547 190.947 93.5733 190.947 93.5733C190.686 96.696 190.193 94.9803 190.314 93.6278C190.425 92.8562 190.565 92.0937 190.658 91.3765C190.742 90.6594 190.835 89.9968 190.929 89.443C191.022 88.8893 191.115 88.4445 191.227 88.154C191.329 87.8726 191.422 87.7455 191.553 87.8454C191.301 87.6457 191.208 86.5836 191.171 85.231C191.152 84.8952 191.171 84.5321 191.134 84.169C191.115 83.8059 191.096 83.4246 191.068 83.0524C191.022 82.299 190.975 81.5456 190.938 80.8648C190.826 83.8513 190.528 81.2551 190.304 80.4109C190.304 80.4109 190.342 79.2943 190.379 78.1687C190.398 77.6059 190.425 77.0431 190.407 76.6256C190.398 76.208 190.398 75.9266 190.398 75.9266C190.603 77.0885 190.677 77.615 190.742 77.7512C190.807 77.8964 190.854 77.6513 190.901 77.2882C190.966 76.5711 190.957 75.4001 191.217 75.9357C191.385 76.2625 191.543 76.6891 191.637 77.1884C191.73 77.6876 191.786 78.2595 191.832 78.8677C191.87 79.4668 191.907 80.1204 191.916 80.7649C191.916 81.4094 191.898 82.0721 191.898 82.6984C192 82.0812 192.065 81.5002 192.102 80.9646C192.14 80.429 192.102 79.9207 192.075 79.4487C192 78.4955 191.86 77.6604 191.683 76.8434C191.478 76.0355 191.264 75.2458 191.087 74.3925C190.994 73.9658 190.929 73.521 190.854 73.0581C190.77 72.5861 190.705 72.0959 190.658 71.5603C190.779 71.5421 190.919 71.6148 191.078 71.9234C191.152 72.0777 191.236 72.2956 191.311 72.586C191.385 72.8765 191.469 73.2487 191.506 73.7207C191.553 73.3304 191.245 72.3773 190.91 71.17C190.742 70.5708 190.584 69.89 190.407 69.2001C190.211 68.5102 190.053 67.784 189.941 67.0578C189.969 67.8476 189.894 69.5269 189.009 66.7855C189.009 66.7855 188.991 66.5495 188.953 66.1955C188.925 65.8414 188.842 65.3785 188.776 64.8974C188.637 63.9533 188.497 63.0093 188.497 63.0093C188.227 61.9381 187.938 61.3481 187.752 60.985C187.556 60.6219 187.416 60.4948 187.276 60.3949C186.978 60.2043 186.699 60.1044 185.907 58.4796C185.907 58.4796 185.944 58.6248 185.991 58.8427C186.037 59.0605 186.093 59.3601 186.149 59.6506C186.261 60.2315 186.363 60.8216 186.363 60.8216C186.214 60.7762 186.028 60.4675 185.842 60.0409C185.646 59.6143 185.45 59.0424 185.208 58.5159C184.742 57.4447 184.286 56.4008 184.006 56.4643C184.435 57.481 184.863 58.2254 185.283 58.997C185.674 59.7867 186.047 60.6037 186.373 61.7202C186.261 62.2195 185.935 61.5478 185.553 60.6128C185.357 60.1407 185.152 59.6052 184.929 59.1241C184.696 58.643 184.463 58.2163 184.276 57.9349C183.857 56.8184 183.578 56.0377 183.354 55.4386C183.121 54.8485 182.963 54.4401 182.832 54.0679C182.702 53.6957 182.59 53.3417 182.441 52.8787C182.292 52.4158 182.115 51.8257 181.78 50.9906C181.957 50.8726 182.283 51.0995 182.674 51.508C183.047 51.9256 183.494 52.5156 183.932 53.0875C184.37 53.6594 184.807 54.2131 185.18 54.5581C185.553 54.8939 185.842 55.0392 186.019 54.7487C185.488 53.6775 184.863 52.5065 184.239 51.2992C183.596 50.0919 182.879 48.8846 182.236 47.6955C180.866 45.3534 179.609 43.193 178.873 41.8041C178.239 40.9418 177.745 40.3336 177.354 39.9251C176.944 39.5257 176.646 39.326 176.432 39.2443C176.003 39.099 175.91 39.4621 175.882 39.8525C174.783 38.4818 174.373 37.7283 173.786 36.757C173.786 36.757 173.879 36.8478 174.009 36.9749C174.14 37.111 174.317 37.2926 174.484 37.4741C174.829 37.8463 175.174 38.2094 175.174 38.2094C174.764 37.692 174.382 37.2018 173.991 36.7479C173.599 36.3031 173.208 35.8674 172.845 35.4499C172.099 34.6238 171.438 33.825 170.674 33.0806C169.938 32.3181 169.202 31.5556 168.401 30.7295C168 30.3301 167.581 29.9216 167.134 29.4859C166.696 29.0502 166.239 28.5872 165.745 28.1152C163.398 26.0728 163.957 27.3073 164.208 28.0971C164.208 28.0971 164.05 27.9609 163.817 27.7521C163.584 27.5433 163.276 27.2619 162.96 26.9987C162.326 26.4631 161.693 25.9275 161.693 25.9275L162 26.3451C161.171 26.2452 159.382 24.5568 157.752 23.2315C158.311 23.3586 158.87 23.4857 159.429 23.6037C161.683 24.0576 163.91 24.5023 166.118 24.9471L162.792 24.6839C165.391 24.929 169.863 25.8004 171.298 26.1181L170.925 26.0909C175.556 27.5252 176.376 26.2452 179.898 27.5978L179.162 27.5524C182.012 27.9881 184.239 28.5237 186.466 29.0139C188.683 29.5222 190.873 30.0033 193.668 30.2938C194.134 30.4118 194.534 30.5298 194.888 30.6297C195.745 30.6297 196.593 30.6025 197.45 30.5843C197.553 29.8127 197.702 29.0774 197.87 28.3512L198 28.4511ZM158.655 32.1366C158.376 31.7099 158.255 31.3831 158.534 31.4921C159.214 32.4543 161.497 34.533 161.161 34.6964C161.161 34.6964 160.966 34.533 160.761 34.3696C160.565 34.2062 160.36 34.0519 160.36 34.0519C160.863 34.5603 161.283 35.0414 161.674 35.4589C162.056 35.8856 162.429 36.2487 162.717 36.5845C163.295 37.2563 163.742 37.7374 164.115 38.0823C164.525 38.2367 164.655 38.1277 164.879 38.1368C164.991 38.1368 165.121 38.1822 165.317 38.3093C165.419 38.3728 165.531 38.4545 165.671 38.5634C165.801 38.6815 165.95 38.8267 166.137 39.0173C167.581 41.0507 167.087 40.7874 166.453 40.388C165.82 39.9795 165.075 39.444 165.969 40.851C165.969 40.851 166.174 41.0598 166.472 41.3775C166.761 41.6952 167.171 42.1037 167.543 42.5485C168.298 43.4381 169.062 44.3186 169.062 44.3186C169.062 44.3186 169.137 44.5728 169.211 44.836C169.248 44.9631 169.286 45.0902 169.314 45.19L169.351 45.3534C169.779 46.0978 170.217 46.8149 170.655 47.5048C170.879 47.8498 171.102 48.1856 171.326 48.5215C171.54 48.8574 171.755 49.2023 171.96 49.5382C172.388 50.2099 172.817 50.8635 173.264 51.508C173.702 52.1616 174.102 52.8243 174.531 53.4869C176.245 56.1194 177.866 58.9153 179.217 62.3103C179.087 62.392 178.854 62.1469 178.575 61.7202C178.267 61.2936 177.904 60.6763 177.54 59.9955C176.842 58.6339 175.957 57.0725 175.565 56.2646C175.798 57.4084 176.478 58.6066 177.093 59.941C177.41 60.6037 177.755 61.2845 178.053 61.9835C178.323 62.6825 178.556 63.3996 178.724 64.1258C178.826 64.4526 178.947 64.7612 179.059 65.0608C179.171 65.3603 179.264 65.6417 179.376 65.9141C179.581 66.4496 179.804 66.9035 180 67.2666C180.401 67.9928 180.745 68.3287 180.839 68.0745C181.882 71.3424 181.071 70.5164 181.071 70.9612C181.183 71.0792 181.304 71.2426 181.416 71.4514C181.519 71.6601 181.612 71.9234 181.705 72.2048C181.882 72.7767 182.059 73.4847 182.227 74.2563C182.32 74.6376 182.366 75.037 182.432 75.4364C182.488 75.8449 182.544 76.2443 182.609 76.6437C182.665 77.0431 182.73 77.4425 182.786 77.8147C182.832 78.196 182.87 78.5681 182.907 78.9131L182.534 79.0674C182.534 79.0674 182.739 80.1295 182.944 81.1916C183.093 82.2627 183.233 83.3429 183.233 83.3429C183.242 82.2264 183.615 83.2249 183.857 83.2158V84.3324C184.081 83.2703 184.146 82.1175 184.099 80.9465C184.053 80.3655 183.978 79.7664 183.904 79.1673C183.866 78.8677 183.82 78.5681 183.773 78.2686C183.736 77.969 183.68 77.6695 183.615 77.3699C183.494 76.7708 183.373 76.1717 183.261 75.5816C183.158 74.9916 183.075 74.4016 182.953 73.8206C182.851 73.2396 182.776 72.6587 182.73 72.0868C182.711 71.7963 182.702 71.5058 182.702 71.2244C182.683 70.943 182.683 70.6616 182.683 70.3711C183.149 71.6511 182.916 69.8446 183.382 71.1427C183.559 72.2593 183.55 72.4953 183.429 72.6405C183.857 73.2487 184.472 75.0007 183.997 72.6405C184.845 72.5951 185.478 77.4062 185.898 80.7286C185.814 81.4003 185.683 81.5637 185.581 81.4094C185.525 81.3368 185.478 81.1825 185.422 80.9737C185.357 80.7649 185.292 80.5017 185.227 80.2112C184.957 79.0402 184.677 77.379 184.36 76.7345C184.416 77.0431 184.491 77.3336 184.565 77.6332C184.63 77.9327 184.696 78.2232 184.761 78.5409C184.882 79.1763 184.975 79.8844 184.947 80.8012L184.314 80.3927C184.36 80.6741 184.398 80.9192 184.435 81.1462C184.463 81.3731 184.481 81.5637 184.509 81.7362C184.556 82.0721 184.603 82.3262 184.64 82.4896C184.724 82.8346 184.798 82.8709 184.873 82.8074C185.031 82.6803 185.217 82.0993 185.525 82.6077C185.73 82.9163 185.832 83.3248 185.879 83.7968C185.935 84.2598 185.898 84.7863 185.832 85.3037C185.702 86.3476 185.506 87.3734 185.497 87.9997C185.497 87.9997 185.497 87.9089 185.497 87.7818C185.488 87.6548 185.478 87.4732 185.46 87.3098C185.432 86.9649 185.404 86.6199 185.404 86.6199C184.994 90.1511 185.525 90.9953 185.05 94.1997C185.05 94.1997 184.891 94.5537 184.696 94.9077C184.509 95.2617 184.323 95.6158 184.323 95.6158C184.481 95.1346 184.621 94.6898 184.696 94.2814C184.77 93.8729 184.807 93.5007 184.835 93.1557C184.873 92.4659 184.835 91.903 184.779 91.3856C184.64 90.3599 184.397 89.552 184.649 88.4263C184.146 91.3039 183.857 90.9408 183.652 89.679C183.54 89.0436 183.485 88.1813 183.363 87.3734C183.242 86.5564 183.121 85.7939 183.009 85.3581C183.028 86.5745 183.037 87.7365 182.888 88.7622C182.823 89.2706 182.748 89.7426 182.665 90.1692C182.581 90.5959 182.488 90.9771 182.357 91.2948C182.441 92.1935 182.404 93.1013 182.311 94.0181C182.18 94.9259 181.975 95.8336 181.789 96.7323C181.705 97.1862 181.584 97.631 181.472 98.0758C181.37 98.5206 181.267 98.9654 181.193 99.4102C181.099 99.855 181.062 100.309 180.988 100.745C180.922 101.18 180.885 101.625 180.885 102.07C180.261 103.867 180.932 100.363 180.373 102.288C179.283 105.792 178.016 109.477 176.637 113.172C175.714 114.978 175.621 114.551 175.137 114.951C174.857 115.486 174.54 115.995 174.261 116.476C173.981 116.966 173.702 117.438 173.45 117.901C173.208 118.373 172.929 118.8 172.677 119.226C172.425 119.662 172.183 120.08 171.95 120.488C171.503 121.323 171.009 122.086 170.562 122.857C170.338 123.239 170.115 123.629 169.891 124.01L169.183 125.127C168.95 125.499 168.708 125.871 168.466 126.243C168.345 126.434 168.214 126.625 168.093 126.815C167.963 126.997 167.832 127.187 167.693 127.378C167.152 128.122 166.593 128.903 165.96 129.711C165.307 130.492 164.609 131.309 163.826 132.171C163.416 132.579 162.997 133.006 162.55 133.451C162.326 133.669 162.093 133.896 161.86 134.123C161.627 134.35 161.385 134.577 161.124 134.794C161.124 134.794 161.189 134.713 161.273 134.595C161.366 134.477 161.478 134.304 161.581 134.132C161.804 133.796 162.019 133.451 162.019 133.451C161.217 134.25 160.388 134.903 159.736 135.539C159.41 135.856 159.121 136.156 158.879 136.447C158.637 136.737 158.422 137 158.283 137.263C157.556 137.536 156.783 138.099 155.925 138.788C155.05 139.442 154.146 140.277 153.168 141.076C152.674 141.466 152.171 141.857 151.677 142.247C151.425 142.438 151.174 142.619 150.932 142.81C150.68 142.991 150.419 143.146 150.168 143.309C149.655 143.627 149.152 143.917 148.658 144.153C148.174 144.398 147.689 144.58 147.224 144.689C146.161 145.234 145.388 145.706 144.764 146.132C144.121 146.523 143.637 146.886 143.189 147.231C142.742 147.576 142.332 147.948 141.801 148.302C141.27 148.656 140.655 149.028 139.807 149.464C139.714 149.255 140.562 148.383 138.745 149.101C133.109 151.697 127.388 153.576 121.379 155.083C115.36 156.59 109.025 157.652 101.963 158.423C102.075 158.323 102.773 158.178 103.127 158.115C101.981 158.214 100.845 158.351 99.7081 158.45C98.5714 158.55 97.4348 158.668 96.3074 158.786C94.0528 158.986 91.8168 159.222 89.618 159.367C85.2298 159.685 81.0093 159.857 77.1615 159.576C76.4162 159.649 75.0373 159.64 73.9659 159.703C72.8944 159.758 72.1584 159.867 72.7919 160.112C74.5342 160.266 74.7484 160.792 74.618 161.11C73.7702 161.11 73.0901 161.11 72.5217 161.083C71.9627 161.056 71.5248 160.983 71.1801 160.929C70.4907 160.811 70.1646 160.665 69.9037 160.529C69.6429 160.384 69.4565 160.248 69.0559 160.112C68.6553 160.003 68.0404 159.848 66.9223 159.712C66.2795 159.213 67.0062 159.195 67.882 159.213C68.7671 159.249 69.8292 159.213 69.8665 158.886C69.8665 158.886 69.4659 158.877 68.8696 158.859C68.2733 158.832 67.472 158.759 66.6708 158.696C65.8696 158.632 65.059 158.596 64.4627 158.514C63.8571 158.441 63.4565 158.396 63.4565 158.396C62.5808 158.151 61.6956 157.96 60.8106 157.779C59.9348 157.561 59.0683 157.361 58.2112 157.171C57.7826 157.071 57.3541 156.971 56.9348 156.871C56.5155 156.753 56.1149 156.626 55.7143 156.508C54.913 156.254 54.1398 155.981 53.4037 155.664C54.7267 156.145 54.0279 155.228 56.1801 156.181C55.8261 156.118 56.0404 156.236 55.6957 156.172C56.3385 156.363 56.8603 156.535 57.3075 156.644C57.7547 156.753 58.1087 156.826 58.4068 156.88C59.0031 156.989 59.3478 157.025 59.6832 157.043C60.0186 157.062 60.3354 157.071 60.8572 157.134C61.2391 157.18 61.7236 157.225 62.413 157.325C61.6304 157.207 60.8106 157.08 59.9814 156.889C59.4037 156.771 58.8168 156.635 58.2205 156.517C57.6335 156.39 57.0373 156.263 56.4596 156.09C55.295 155.773 54.1397 155.455 53.0683 155.119C52.0062 154.747 51.0186 154.384 50.1522 154.048C50.3012 154.238 50.1894 154.284 49.9192 154.248C49.6491 154.211 49.2298 154.093 48.7733 153.921C47.8416 153.585 46.6957 153.14 46.146 153.104L45.9503 152.968C45.8478 153.213 43.6677 152.387 42.9783 152.16L42.4286 151.161C40.9099 150.553 42.6894 151.688 41.1894 151.043C40.6584 150.816 39.7919 150.408 38.795 149.918C38.5435 149.79 38.2919 149.663 38.0217 149.536C37.7702 149.391 37.5093 149.237 37.2485 149.092C36.7267 148.783 36.1863 148.465 35.6646 148.157C34.6118 147.548 33.6895 146.849 33 146.296C32.3106 145.733 31.8634 145.297 31.854 145.07C30.7081 144.308 29.9534 143.845 29.1615 143.4C28.9658 143.282 28.7702 143.164 28.5652 143.046C28.4627 142.982 28.3602 142.919 28.2578 142.855C28.1553 142.783 28.0621 142.701 27.9596 142.628C27.5497 142.311 27.0932 141.947 26.5714 141.475C26.8602 141.485 27.4286 141.866 27.5683 141.866C27.0093 141.376 26.4224 140.867 25.8261 140.359C25.5186 140.114 25.2578 139.823 24.9689 139.551C24.6801 139.279 24.4006 138.997 24.1118 138.716C22.9099 137.636 21.8664 136.392 20.7764 135.194C20.4876 134.894 20.2733 134.595 20.0497 134.304C19.8261 134.005 19.5838 133.732 19.3789 133.406C19.1646 133.097 18.9596 132.779 18.7547 132.471C18.5497 132.153 18.3634 131.826 18.177 131.508C17.7857 130.882 17.469 130.192 17.1336 129.557C16.8261 128.894 16.5373 128.249 16.2857 127.605C15.2329 125.626 14.3851 123.665 13.6584 121.886C13.2764 121.006 12.9596 120.143 12.6242 119.354C12.3168 118.555 11.9907 117.819 11.7019 117.13C11.8696 117.729 12.1957 118.909 12.3261 119.68C12.4752 120.443 12.4472 120.815 11.9162 119.78C11.2826 118.655 10.8447 116.757 10.323 114.878C10.7236 115.241 9.73604 110.022 10.6957 113.753C10.9938 113.199 10.5559 111.193 10.3043 109.314C10.0901 107.38 9.87577 105.565 10.3043 105.574C10.2391 105.356 10.1739 104.848 10.118 104.176C10.0621 103.504 9.9969 102.678 9.98758 101.816C9.97826 100.953 9.92237 100.055 9.91306 99.2377C9.91306 98.4298 9.87577 97.7036 9.80123 97.1862C9.98757 96.9683 10.0062 97.7036 10.0062 98.4933C10.0062 98.8927 10.0062 99.3012 10.0155 99.6099C10.0342 99.9185 10.0808 100.127 10.1367 100.127C10.1367 100.127 10.1367 99.973 10.118 99.737C10.118 99.51 10.118 99.2014 10.118 98.8837C10.118 98.2664 10.1273 97.6491 10.1273 97.6491H10.3602C10.4534 96.4872 10.5652 95.5522 10.5652 94.7625C10.5652 94.3721 10.5652 94.009 10.5559 93.6732C10.5559 93.3373 10.5559 93.0287 10.5279 92.7382C10.472 91.5581 10.3137 90.5868 10.5466 89.1979L10.6118 89.325C10.6118 89.325 10.677 88.8439 10.7422 88.3719C10.7702 88.1268 10.8075 87.8908 10.8354 87.7183C10.8727 87.5458 10.8913 87.4187 10.8913 87.4187C10.8913 87.4187 10.8913 87.564 10.9006 87.7818C10.9193 87.9997 10.9379 88.2993 10.9658 88.5897C11.0124 89.1707 11.0497 89.7517 11.0497 89.7517C11.1801 89.0073 11.2547 88.3447 11.3292 87.7183C11.413 87.0919 11.4876 86.511 11.5528 85.9119C11.5901 85.6123 11.618 85.3037 11.6553 84.995C11.7019 84.6864 11.7671 84.3687 11.8323 84.0419C11.9721 83.3792 12.1118 82.653 12.3633 81.8361L12.6708 81.5819L13.1646 79.5758C13.0808 79.9116 13.1273 80.0569 13.2578 79.8662C13.2671 79.3579 13.4534 78.7406 13.6584 78.0416C13.7702 77.6967 13.882 77.3336 14.0124 76.9705C14.1429 76.6074 14.3012 76.2443 14.4596 75.8721C14.7671 75.1368 15.0559 74.4016 15.3447 73.748C15.6242 73.0944 15.8478 72.5043 15.9503 72.0414C16.3043 71.4423 16.8354 71.0066 17.3013 70.471C17.7764 69.9445 18.1863 69.3181 18.4938 68.4195L18.941 69.0912C18.6335 69.5723 18.4099 69.9626 18.2143 70.2804C18.0186 70.589 17.8602 70.8341 17.7298 71.0066C17.4689 71.3697 17.3013 71.5331 17.1336 71.7055C16.9659 71.878 16.8168 72.0686 16.5745 72.4771C16.3416 72.8947 15.9876 73.5301 15.5124 74.6285C15.8012 74.2745 16.1739 73.8478 16.5373 73.3486C16.7236 73.0944 16.9193 72.8221 17.1149 72.5316C17.2081 72.3863 17.3106 72.2411 17.413 72.0868C17.5155 71.9325 17.6273 71.7781 17.7391 71.6238C18.1863 70.9975 18.6335 70.3076 19.1273 69.5995C19.6398 68.8915 20.1522 68.1381 20.6832 67.3755C22.854 64.3346 25.472 61.112 27.7453 58.6611C29.413 56.5279 32.0683 54.077 34.5186 51.9982C36.9503 49.8922 39.1863 48.1402 39.7919 47.0056L39.6056 47.7045C39.6056 47.7045 39.7267 47.6228 39.9317 47.4776C40.146 47.3414 40.4348 47.1236 40.7981 46.8876C41.5342 46.4155 42.4938 45.771 43.4907 45.1537C45.4565 43.9101 47.4876 42.7573 47.4876 42.7573C50.7764 40.5696 54.3075 38.627 57.6801 36.866C58.528 36.4121 59.3385 36.0127 60.1397 35.6133C60.9317 35.1957 61.7329 34.8326 62.5062 34.4604C63.2702 34.0791 64.0342 33.7342 64.7609 33.3802C65.4969 33.0171 66.1957 32.6721 66.8758 32.3453C66.8758 32.3453 67.295 32.2818 67.7143 32.2273C68.1335 32.1638 68.5528 32.1093 68.5528 32.1093C71.2453 30.43 76.3416 28.6689 81.2795 27.2619C86.2081 25.8186 90.9689 24.7111 92.9068 23.5946C96.5404 23.2769 91.9379 24.348 91.6398 24.6839C92.9628 24.5114 94.6677 23.9577 96.3913 23.5401C98.1056 23.1044 99.8385 22.7867 101.152 22.9319C101.18 23.1589 97.472 23.6854 99.1677 23.5764C100.155 23.6491 100.817 23.4403 101.525 23.2406C102.224 23.0499 102.969 22.8593 104.078 22.9592C103.053 22.6324 107.432 21.5612 110.693 21.2072C110.289 21.2314 110 21.2344 109.826 21.2163C109.323 20.9167 111.755 20.7624 113.087 20.6262C113.087 20.6262 112.966 20.7261 112.612 20.7896C120.997 19.8547 130.109 19.4825 139.248 20.1814C140.003 20.2359 140.748 20.2994 141.503 20.3811C141.624 20.4356 141.745 20.4901 141.857 20.5445C142.099 20.6535 142.332 20.7442 142.556 20.8441C142.789 20.944 143.012 21.0347 143.245 21.1255C143.721 21.298 144.205 21.4432 144.783 21.5612C143.59 20.8895 143.078 20.9349 142.127 20.4538C142.677 20.5082 143.236 20.5718 143.795 20.6444C146.534 22.233 148.37 24.0575 150.121 25.3556C150.121 25.3556 149.991 25.283 149.795 25.165C149.59 25.0561 149.32 24.9108 149.059 24.7747C148.519 24.4842 147.988 24.2028 147.988 24.2028H148.137C147.913 24.1211 147.587 23.9395 147.233 23.7398C146.87 23.5401 146.469 23.3132 146.096 23.1044C145.36 22.6959 144.736 22.3873 144.773 22.6687C145.826 23.0227 146.665 23.5311 147.531 24.1302C148.388 24.7474 149.329 25.3829 150.587 26.0818H150.438C150.978 26.4086 151.481 26.7445 151.966 27.0804C152.432 27.4344 152.879 27.7975 153.289 28.1424C154.137 28.8414 154.854 29.5767 155.553 30.2484C156.261 30.9111 156.885 31.5647 157.565 32.1093C158.245 32.6449 158.916 33.126 159.699 33.48C159.354 33.1714 158.935 32.6267 158.665 32.1819L158.655 32.1366Z" fill="currentColor"/>
  </symbol>


</svg>

